<?xml version="1.0" encoding="utf-8"?>
<!-- Generator: Adobe Illustrator 16.0.0, SVG Export Plug-In . SVG Version: 6.00 Build 0)  -->
<!DOCTYPE svg PUBLIC "-//W3C//DTD SVG 1.1//EN" "http://www.w3.org/Graphics/SVG/1.1/DTD/svg11.dtd">
<svg version="1.1" id="Layer_1" xmlns="http://www.w3.org/2000/svg" xmlns:xlink="http://www.w3.org/1999/xlink" x="0px" y="0px"
	 width="944.947px" height="221.878px" viewBox="0 0 944.947 221.878" enable-background="new 0 0 944.947 221.878"
	 xml:space="preserve">
<path fill="#FFFFFF" d="M445.151,101.506c0,0,0.518-12.08-7.774-19.862c-8.289-7.783-17.18-13.883-17.18-13.883
	S388.315,50.86,383.139,47.82c-5.178-3.04-59.436-22.285-74.681-26.588c-15.244-4.305-53.657-13.207-53.657-13.207l60.956,105.16
	l70.495,9.829l36.386-6.963L445.151,101.506z"/>
<path fill="#FFFFFF" d="M18.179,92.818c0,0-6.375-18.538,32.769-36.372c39.145-17.833,92.118-28.188,92.118-28.188
	s55.916-9.558,73.084-9.956l49.726-8.209l64.451,104.182l-135.269,21.512l-113.304-4.781l-55.916-24.291L18.179,92.818z"/>
<path fill="#ADB6BA" d="M450.755,117.763c-0.439,17.799-101.683,29.654-226.129,26.48c-124.446-3.176-224.972-20.18-224.53-37.979
	c0.44-17.801,101.682-29.657,226.128-26.481C350.671,82.958,451.197,99.962,450.755,117.763"/>
<path fill="#677172" d="M12.882,82.092c0,0,4.539,19.185,7.565,21.487c2.432,1.852,9.846,33.055,154.299,29.93
	c35.161-0.76,146.738-16.883,146.738-16.883l-6.183-17.017c0,0-108.788,19.671-170.056,18.904
	C61.379,117.462,26.496,107.416,12.882,82.092"/>
<path fill="#677172" d="M321.484,116.626l8.066-16.226c48.368,7.198,42.613,7.783,66.061,10.086
	c21.845,2.146,50.803,4.577,58.996-4.605c0,0-9.075,16.116-17.395,18.418C428.89,126.603,433.43,128.904,321.484,116.626"/>
<path fill="#8C97A5" d="M314.678,99.743l6.806,16.882l8.066-16.224l-7.345-18.767l-7.496,4.095c0,0-18.453-45.05-41.52-71.379V8.499
	l-6.163-8.34l-4.344,8.678"/>
<path fill="#24242F" d="M207.675,51.55c-0.672-4.183-13.25-5.582-28.093-3.126c-14.841,2.457-26.33,7.839-25.657,12.021
	c0.673,4.184,13.25,5.583,28.093,3.127C196.86,61.115,208.347,55.734,207.675,51.55"/>
<path fill="#24242F" d="M279.53,53.854c-0.672-4.183-13.251-5.583-28.094-3.126c-14.841,2.456-26.329,7.838-25.656,12.021
	c0.673,4.184,13.25,5.583,28.092,3.126C268.715,63.418,280.201,58.038,279.53,53.854"/>
<path fill="#24242F" d="M256.334,30.151c-0.672-4.183-13.25-5.582-28.092-3.126c-14.843,2.457-26.329,7.84-25.657,12.022
	c0.673,4.183,13.25,5.583,28.092,3.126C245.521,39.717,257.005,34.335,256.334,30.151"/>
<path fill="#24242F" d="M298.445,49.556c0,0,22.49,1.394,23.327-2.267c0.941-4.129-10.172-10.264-24.825-13.705
	c-2.476-0.58-7.212-1.404-7.212-1.404l-5.59,10.838l-6.921-9.945c0,0-8.106-0.009-8.51,1.758
	c-0.772,3.385,16.008,12.284,16.008,12.284l6.991,11.852L298.445,49.556z"/>
<path fill="#FFFFFF" d="M302.65,84.595c0,9.213-59.447,16.682-132.781,16.682c-73.333,0-132.782-7.469-132.782-16.682
	s59.449-16.683,132.782-16.683C243.203,67.912,302.65,75.382,302.65,84.595"/>
<path fill="#C5CED2" d="M265.073,14.134c0,0-217.476,23.583-198.9,65.159c18.577,41.577,234.388,2.558,234.388,2.558l9.223,16.949
	c0,0-264.282,57.637-284.763-19.029c0,0,12.188-47.812,214.893-73.312l22.768,2.379l2.867,5.202"/>
<path fill="#E0E4E7" d="M263.436,9.999c0,0-224.941,24.829-205.335,68.708c19.605,43.882,247.171,1.97,247.171,1.97l9.407,19.066
	c0,0-280.694,60.023-302.31-20.89c0,0,12.862-50.461,226.799-77.373L257.898,0"/>
<path fill="#C5CED2" d="M333.694,100.359c0,0,126.146,28.646,115.441-3.467C438.43,64.778,286.388,10.713,279.245,8.581
	l-6.165-2.497l0.109,8.266l73.012,29.084c0,0,65.922,27.695,78.161,46.56c12.241,18.865-97.449-6.958-97.449-6.958L333.694,100.359z
	"/>
<path fill="#E0E4E7" d="M329.55,100.401c0,0,136.669,31.036,125.071-3.756C443.022,61.854,278.3,3.277,270.56,0.968l-3.534-0.809
	L273.19,8.5c0,0,144.469,59.52,157.73,79.959c13.261,20.438-108.715-6.825-108.715-6.825L329.55,100.401z"/>
</svg>
