<?xml version="1.0" encoding="utf-8"?>
<!-- Generator: Adobe Illustrator 16.0.0, SVG Export Plug-In . SVG Version: 6.00 Build 0)  -->
<!DOCTYPE svg PUBLIC "-//W3C//DTD SVG 1.1//EN" "http://www.w3.org/Graphics/SVG/1.1/DTD/svg11.dtd">
<svg version="1.1" id="Layer_1" xmlns="http://www.w3.org/2000/svg" xmlns:xlink="http://www.w3.org/1999/xlink" x="0px" y="0px"
	 width="889.715px" height="76.9px" viewBox="0 0 889.715 76.9" enable-background="new 0 0 889.715 76.9" xml:space="preserve">
<g>
	<defs>
		<rect id="SVGID_1_" x="-13.305" y="-22.68" width="1013.76" height="108"/>
	</defs>
	<clipPath id="SVGID_2_">
		<use xlink:href="#SVGID_1_"  overflow="visible"/>
	</clipPath>
	<path clip-path="url(#SVGID_2_)" fill-rule="evenodd" clip-rule="evenodd" d="M463.945,5.101c1.672,0.924,0.519,2.502,1.357,3.732
		c4.183-2.78,8.111-5.948,12.437-8.833c3.3,4.261,7.771,6.359,13.072,7.421c-1.409,1.479-2.51,2.738-3.726,3.874
		c-0.939,0.878-1.352,1.805-1.341,3.132c0.081,9.912,0.015,19.825,0.161,29.736c0.031,2.096,0.755,4.182,1.18,6.383
		c-7.285,0.425-12.219,4.641-15.88,10.654c-2.014-1.007-3.919-1.96-6.21-3.105c-0.12,3.386-0.052,6.396-0.064,9.4
		c-0.012,2.942-0.002,5.886-0.002,8.888c-2.118,0.442-3.883-0.087-5.454-1.018c-1.487-0.881-2.791-2.07-4.24-3.174
		c-2.536,2.882-5.451,5.033-9.857,4.669c4.977-6.397,4.45-13.583,4.048-21.038c-4.574-0.142-7.809,2.01-10.762,5.556
		c-0.166-3.843,0.562-7.072,2.389-10.024c1.906-3.079,4.742-4.874,8.334-5.495c0-3.876,0-7.532,0-11.188
		c-3.144-1.037-5.021-0.102-6.724,3.35c-1.844-2.205-2.479-6.53-1.275-9.367c1.509-3.558,4.746-4.117,8.31-4.244
		c0-2.545,0.083-4.85-0.03-7.146c-0.07-1.419-0.274-2.876-0.711-4.221c-0.671-2.062-2.127-3.338-4.425-3.401
		c-2.319-0.064-3.876,0.953-4.812,3.214c-0.303,0.73-0.488,1.509-0.752,2.347c-0.189-0.143-0.463-0.241-0.495-0.39
		c-1.236-5.938,1.106-10.66,5.942-12.754c5.082-2.201,10.932-1.151,13.431,5.175c0.724,1.832,1.087,3.806,1.655,5.859
		c0.29-0.151,0.539-0.292,0.798-0.414c2.573-1.217,3.936-3.081,3.345-6.064C463.565,6.214,463.804,5.753,463.945,5.101z
		 M469.056,8.275c-0.521,0.331-1.036,0.698-1.588,1c-1.848,1.016-2.503,2.447-2.471,4.65c0.141,9.667,0.061,19.338,0.061,29.007
		c0,0.864,0,1.729,0,2.712c4.253,1.051,7.535,3.615,11.175,6.148c0-13.086,0-25.826,0-38.53
		C470.889,11.618,471.597,11.338,469.056,8.275z M463.36,74.339c0.439-2.881,0.335-60.182-0.105-62.032
		c-0.49,0.326-0.922,0.673-1.403,0.923c-2.079,1.082-2.636,2.717-2.614,5.071c0.145,15.436,0.102,30.874,0.152,46.311
		c0.006,1.834,0.089,3.684,0.349,5.496C460.024,72.106,461.046,73.65,463.36,74.339z"/>
	<path clip-path="url(#SVGID_2_)" fill-rule="evenodd" clip-rule="evenodd" d="M175.108,17.499c1.754,0.338,3.317,0.587,4.855,0.949
		c1.707,0.402,3.419,0.818,5.077,1.381c8.989,3.051,11.235,12.618,7.411,19.567c-1.294,2.353-2.939,4.619-4.838,6.51
		c-4.827,4.804-9.412,9.798-13.516,15.233c-0.238,0.316-0.526,0.595-0.893,1.006c-0.633-0.241-1.286-0.474-1.927-0.737
		c-6.114-2.518-12.407-4.136-19.085-4.063c-5.241,0.058-10.119,1.242-14.515,4.176c-0.174,0.116-0.381,0.186-0.638,0.307
		c7.571-15.554,30.369-18.532,41.97-10.251c2.166-2.532,4.461-4.989,6.474-7.659c1.08-1.433,1.976-3.154,2.421-4.883
		c0.823-3.192-0.107-5.983-2.819-8.074c-2.23-1.72-4.816-2.464-7.529-2.843c-2.528-0.354-5.073-0.584-7.607-0.898
		c-0.988-0.123-1.732,0.301-2.302,1.006c-0.744,0.92-1.398,1.913-2.293,3.156c2.125,0.195,3.938,0.255,5.71,0.554
		c2.351,0.396,4.758,0.733,6.982,1.536c4.035,1.453,5.536,4.67,4.384,8.808c-0.709,2.549-2.319,4.459-4.459,6.012
		c-0.156-0.254-0.295-0.374-0.294-0.493c0.016-3.244-0.265-3.976-3.394-4.814c-2.907-0.778-5.958-1.053-8.961-1.433
		c-1.978-0.251-3.989-0.233-5.973-0.455c-1.236-0.138-2.078,0.273-2.946,1.139c-1.636,1.632-3.328,3.233-5.159,4.638
		c-2.465,1.889-5.279,2.953-8.469,2.815c-1.739-0.075-3.137-0.656-3.816-2.364c-0.737-1.855-0.163-4.413,1.188-5.549
		c1.892-1.592,4.793-0.923,5.775,1.446c0.446,1.076,0.552,2.293,0.861,3.659c3.702-0.544,5.97-3.072,8.557-5.811
		c-0.886-0.217-1.465-0.369-2.049-0.5c-2.33-0.524-4.784-0.738-6.969-1.621c-6.282-2.535-7.895-11.372-2.93-16.017
		c0.328,3.297,2.652,4.769,5.264,5.936c3.036,1.356,6.294,1.753,9.561,2.079c0.635,0.064,1.308-0.048,1.911,0.115
		c2.171,0.587,3.665-0.174,4.699-2.104c0.294-0.548,0.745-1.012,1.333-1.791c-2.322-0.19-4.367-0.251-6.377-0.549
		c-2.436-0.361-4.929-0.667-7.243-1.453c-4.506-1.529-6.369-4.677-6.013-9.437c0.405-5.413,3.132-9.34,7.893-11.766
		c5.025-2.561,10.44-3.432,16.048-3.045c5.098,0.351,9.909,1.672,14.261,4.537c0.655-0.324,1.268-0.686,1.925-0.919
		c0.221-0.078,0.722,0.098,0.805,0.286c0.137,0.307,0.186,0.841,0.005,1.064c-0.394,0.486-0.975,0.816-1.445,1.248
		c-3.354,3.076-6.703,6.156-10.042,9.248C175.698,16.633,175.504,16.98,175.108,17.499z M175.982,13.395
		c-2.525-2.449-5.108-4.567-8.115-6.129c-2.742-1.425-5.673-2.282-8.746-2.146c-1.617,0.071-3.306,0.57-4.782,1.263
		c-2.065,0.969-2.491,2.963-2.365,5.095c0.119,2.032,1.25,3.198,3.139,3.741c0.995,0.286,1.968,0.745,2.98,0.854
		c3.805,0.409,7.659,0.488,11.424,1.115c2.938,0.488,4.68-0.665,6.042-2.976C175.681,14.007,175.779,13.79,175.982,13.395z"/>
	<path clip-path="url(#SVGID_2_)" fill-rule="evenodd" clip-rule="evenodd" d="M336.515,53.946
		c-2.965,2.547-5.731,4.924-8.655,7.436c-2.541-2.612-5.748-4.702-9.986-4.98c0.76-2.075,2.024-3.468,3.683-4.465
		c0.809-0.485,1.036-1.05,1.032-1.93c-0.028-5.839,0.007-11.677-0.042-17.516c-0.007-0.854-0.158-1.817-0.571-2.541
		c-1.928-3.373-3.785-4.218-6.757-1.448c-1.106,1.031-2.361,1.902-3.473,2.927c-0.353,0.324-0.656,0.908-0.659,1.375
		c-0.044,5.992-0.029,11.985-0.029,18.064c1.797,1.046,3.878,1.61,4.998,3.211c-2.799,2.451-5.545,4.855-8.402,7.357
		c-2.543-2.765-5.767-4.707-10.006-5.028c0.592-1.9,1.709-3.213,3.158-4.147c1.115-0.719,1.367-1.577,1.356-2.795
		c-0.046-5.598-0.002-11.197-0.026-16.796c-0.015-3.555-0.78-4.517-4.211-5.659c-0.384-0.127-0.943-0.568-0.93-0.84
		c0.017-0.359,0.467-0.764,0.82-1.031c2.607-1.964,5.237-3.899,8.123-6.038c3.76,2.087,5.354,5.628,5.131,10.413
		c0.763-0.501,1.344-0.842,1.882-1.242c3.657-2.719,7.299-5.457,10.956-8.175c1.707-1.269,2.13-1.282,3.783-0.021
		c2.156,1.645,3.254,3.885,3.542,6.552c0.091,0.848,0.188,1.695,0.328,2.944c5.068-3.704,9.81-7.169,14.762-10.789
		c2.164,3.202,4.842,5.212,9.019,3.404c-0.009,2.494-0.947,4.271-2.637,5.605c-0.789,0.623-1.07,1.271-1.065,2.229
		c0.028,5.759,0.01,11.518,0.021,17.276c0.001,0.557,0.081,1.115,0.156,1.669c0.291,2.146,1.491,3.472,3.612,3.938
		c0.535,0.118,1.082,0.188,1.572,0.271c0.418,0.834-0.064,1.215-0.557,1.67c-1.755,1.62-3.552,3.207-5.168,4.959
		c-0.79,0.857-1.453,1.055-2.491,0.662c-2.802-1.06-4.91-2.755-5.268-5.915c-0.288-2.534-0.506-5.087-0.547-7.635
		c-0.083-5.117-0.043-10.237-0.011-15.356c0.007-1.104-0.154-1.904-1.253-2.563c-1.061-0.637-1.863-1.704-2.938-2.732
		c-2.08,1.538-4.284,3.094-6.386,4.777c-0.476,0.38-0.841,1.197-0.848,1.817c-0.065,5.6-0.014,11.198-0.061,16.797
		c-0.009,1.07,0.511,1.527,1.351,1.986C334.124,52.356,335.349,53.21,336.515,53.946z"/>
	<path clip-path="url(#SVGID_2_)" fill-rule="evenodd" clip-rule="evenodd" d="M296.814,53.291
		c-0.409,0.609-0.629,1.092-0.983,1.438c-1.711,1.668-3.53,3.23-5.162,4.971c-0.827,0.882-1.522,1.212-2.688,0.766
		c-2.904-1.115-4.938-2.922-5.258-6.19c-0.186-1.902-0.426-3.808-0.447-5.715c-0.061-5.438-0.039-10.877-0.01-16.315
		c0.008-1.491-0.037-2.797-1.722-3.537c-1.002-0.439-1.814-1.311-2.934-2.155c-1.729,1.287-3.983,2.907-6.154,4.633
		c-0.411,0.327-0.687,1.071-0.691,1.626c-0.049,5.993-0.03,11.986-0.03,17.911c1.771,1.098,3.44,2.133,5.144,3.188
		c-3.01,2.578-5.813,4.98-8.797,7.537c-2.49-2.76-5.7-4.703-9.886-5.057c0.6-2.051,1.912-3.321,3.418-4.298
		c0.968-0.628,1.223-1.314,1.218-2.356c-0.028-5.598-0.022-11.197-0.01-16.795c0.005-2.025-0.638-3.762-2.146-5.142
		c-1.231-1.125-2.329-1.345-3.668-0.396c-1.819,1.288-3.532,2.733-5.227,4.184c-0.296,0.253-0.39,0.869-0.392,1.318
		c-0.026,5.599-0.003,11.197-0.032,16.796c-0.005,0.934,0.359,1.471,1.198,1.825c1.468,0.621,2.883,1.338,3.738,2.578
		c-2.808,2.462-5.552,4.867-8.399,7.362c-2.559-2.858-5.772-4.789-9.907-5.042c0.528-1.997,1.688-3.265,3.075-4.133
		c1.247-0.781,1.414-1.718,1.406-2.977c-0.035-5.519-0.003-11.038-0.019-16.557c-0.012-3.74-0.986-4.936-4.645-5.822
		c-0.15-0.036-0.285-0.136-0.679-0.331c0.208-0.433,0.302-1.019,0.643-1.278c2.721-2.065,5.489-4.069,8.427-6.227
		c3.773,2.048,5.252,5.612,5.171,10.322c0.794-0.487,1.324-0.76,1.795-1.11c3.658-2.718,7.302-5.454,10.956-8.178
		c1.747-1.302,2.189-1.292,3.967,0.067c2.178,1.663,3.108,3.988,3.464,6.604c0.107,0.787,0.143,1.583,0.246,2.774
		c5-3.649,9.789-7.144,14.768-10.778c2.169,3.177,4.842,5.193,9.054,3.392c-0.045,2.408-0.875,4.175-2.507,5.425
		c-1.041,0.798-1.244,1.679-1.235,2.864c0.042,5.519,0.011,11.037,0.027,16.556c0.002,0.714,0.073,1.437,0.196,2.14
		c0.375,2.136,1.666,3.383,3.793,3.771C295.431,53.046,295.968,53.14,296.814,53.291z"/>
	<path clip-path="url(#SVGID_2_)" fill-rule="evenodd" clip-rule="evenodd" d="M648.735,25.874c1.472-1.081,2.955-2.032,4.273-3.175
		c1.319-1.146,2.475-2.482,3.889-3.926c2.953,2.736,6.141,4.911,10.394,4.976c-0.801,2.032-1.961,3.418-3.566,4.406
		c-0.768,0.472-1.055,1.05-1.05,1.948c0.031,6.8,0.017,13.6,0.022,20.399c0.002,1.629,0.379,3.168,1.21,4.576
		c2.584,4.382,1.808,8.636-0.697,12.675c-3.344,5.392-8.491,7.814-14.659,8.229c-3.819,0.258-7.504-0.427-10.876-2.303
		c-2.244-1.249-4.348-1.517-6.407,0.303c-0.097,0.086-0.292,0.06-0.711,0.133c0.341-3.222,1.128-6.146,3.559-8.347
		c2.543-2.305,6.195-2.13,8.63,0.341c0.839,0.851,1.557,1.82,2.345,2.723c0.788,0.903,1.541,1.847,2.402,2.674
		c3.402,3.27,8.027,2.223,9.785-2.203c0.771-1.939,0.745-3.91-0.018-5.844c-0.321-0.814-0.671-1.653-1.188-2.347
		c-1.816-2.438-2.299-5.219-2.295-8.152c0.001-0.713,0-1.426,0-2.636c-5.16,3.815-9.992,7.388-14.988,11.083
		c-2.161-3.512-4.987-5.116-9.074-3.299c-0.246-2.592,0.852-4.302,2.532-5.582c1.029-0.783,1.326-1.602,1.314-2.819
		c-0.054-5.358-0.023-10.719-0.023-16.079c0-0.16,0.013-0.321-0.003-0.479c-0.382-3.838-0.854-5.588-5.723-6.22
		c0.202-0.495,0.254-1.099,0.576-1.333c2.148-1.563,4.075-3.349,5.695-5.451c0.523-0.679,1.097-0.817,1.877-0.56
		c2.93,0.966,5.085,2.715,5.702,5.87c0.319,1.633,0.551,3.311,0.566,4.97c0.062,6.633,0.026,13.268,0.026,19.578
		c1.562,1.37,2.859,2.509,4.382,3.843c2.063-1.545,4.363-3.222,6.596-4.984c0.36-0.285,0.587-0.952,0.591-1.444
		c0.039-5.994,0.025-11.987,0.025-18.117C651.909,28.5,650.039,27.634,648.735,25.874z"/>
	<path clip-path="url(#SVGID_2_)" fill-rule="evenodd" clip-rule="evenodd" d="M13.651,13.69c-2.407,3.948-4.25,8.088-5.221,12.584
		c-1.166,5.397-1.274,10.774,0.552,16.073c2.14,6.209,6.598,9.715,12.987,10.583c5.326,0.724,10.301-0.559,14.834-3.522
		c1.121-0.732,1.573-1.571,1.566-2.945c-0.055-11.115-0.028-22.23-0.038-33.346c0-0.618-0.097-1.235-0.143-1.782
		c-2.556,0-4.953,0.125-7.332-0.025c-5.181-0.328-10.35-0.854-15.531-1.187c-3.026-0.195-6.066-0.237-9.1-0.23
		c-2.327,0.005-4.332,0.944-5.998,2.691C-0.118,8.441,2.655,3.958,6.554,2.181c2.083-0.95,4.307-1.329,6.543-1.224
		c4.861,0.228,9.722,0.548,14.569,0.989c5.085,0.461,10.139,1.42,15.273,0.868c1.73-0.186,3.442-0.542,5.106-0.812
		c-0.677,3.015-3.274,5.727-8.122,8.285c0,12.029,0,24.136,0,36.561c1.865-1.753,3.518-3.307,5.288-4.972
		c-0.366,1.337-0.633,2.654-1.086,3.904c-2.191,6.043-5.562,11.255-11.519,14.118c-7.852,3.774-15.683,3.257-23.108-1.257
		c-4.826-2.935-7.513-7.516-8.792-12.932C-2.052,34.029,3.478,20.239,13.651,13.69z"/>
	<path clip-path="url(#SVGID_2_)" fill-rule="evenodd" clip-rule="evenodd" d="M48.312,4.98c4.971,0.34,8.992-1.292,12.888-3.688
		c-0.585,2.176-1.369,4.189-1.626,6.268c-0.373,3-0.444,6.048-0.499,9.079c-0.077,4.208-0.02,8.418-0.02,13.15
		c5.254-3.815,10.087-7.322,15.042-10.92c2.184,2.966,4.68,5.197,8.865,3.324c0.18,2.335-0.679,4.105-2.234,5.413
		c-0.99,0.833-1.271,1.671-1.256,2.869c0.08,6.637,0.128,13.272,0.134,19.909c0.001,2.243,0.802,4.196,2.124,6.277
		c-1.742-0.169-3.212-0.36-4.688-0.439c-1.931-0.104-3.846-0.014-5.545,1.099c-1.777,1.163-1.932,2.456-0.403,3.901
		c0.635,0.6,1.33,1.193,2.102,1.58c4.219,2.11,3.234,10.069-0.762,11.625c-1.093,0.425-2.207,0.797-3.774,1.359
		c0.482-1.068,0.746-1.678,1.028-2.278c1.406-2.989,1.478-6.001,0.16-9.036c-0.318-0.732-0.694-1.443-0.956-2.195
		c-0.398-1.144-0.622-2.326-0.126-3.505c2.04-4.852,1.996-9.981,1.999-15.097c0.002-4.075-0.125-8.149-0.134-12.225
		c-0.001-1.025-0.069-1.777-1.154-2.35c-1.112-0.586-2.029-1.542-3.321-2.567c-1.826,1.349-4.203,3.061-6.512,4.859
		c-0.356,0.277-0.561,0.955-0.563,1.449c-0.038,5.991-0.024,11.982-0.024,17.85c1.831,1.115,3.51,2.138,5.301,3.229
		c-3,2.513-5.768,4.83-8.676,7.266c-2.663-2.643-5.915-4.55-10.015-4.768c0.709-1.961,1.752-3.411,3.32-4.273
		c1.299-0.715,1.473-1.682,1.443-2.954c-0.072-3.038-0.084-6.077-0.088-9.115c-0.01-8.798-0.03-17.597,0.011-26.394
		C50.367,10.717,50.426,7.779,48.312,4.98z"/>
	<path clip-path="url(#SVGID_2_)" fill-rule="evenodd" clip-rule="evenodd" d="M889.715,53.199
		c-0.679,2.104-2.616,2.599-3.683,3.903c-1.104,1.352-2.343,2.593-3.521,3.883c-4.5-0.752-6.668-3.655-7.028-7.276
		c-0.142-1.427-0.327-2.858-0.336-4.288c-0.038-5.914-0.028-11.827-0.005-17.742c0.005-1.083-0.093-1.898-1.207-2.584
		c-1.043-0.641-1.773-1.789-2.788-2.872c-2.236,1.617-4.577,3.255-6.84,4.995c-0.418,0.321-0.733,1.05-0.738,1.595
		c-0.055,5.354-0.033,10.708-0.034,16.062c0,0.634,0,1.267,0,1.944c1.771,1.133,3.898,1.632,5.004,3.249
		c-2.776,2.475-5.498,4.899-8.29,7.388c-2.666-2.831-5.939-4.835-10.161-5.041c0.729-1.984,1.853-3.335,3.364-4.279
		c1.105-0.689,1.404-1.532,1.392-2.772c-0.058-5.435-0.014-10.869-0.029-16.304c-0.011-3.891-0.873-4.995-4.639-6.104
		c-0.281-0.083-0.523-0.303-0.875-0.514c0.156-0.361,0.196-0.739,0.402-0.892c2.873-2.128,5.769-4.226,8.834-6.457
		c3.645,2.268,5.334,5.699,4.948,10.626c5.203-3.772,10.067-7.296,15.059-10.913c2.222,3.04,4.718,5.27,8.825,3.414
		c0.25,2.217-0.556,3.949-2.053,5.191c-1.149,0.953-1.381,1.969-1.368,3.322c0.052,5.274,0.017,10.549,0.023,15.823
		c0.001,0.638,0.026,1.279,0.099,1.911c0.338,2.909,1.457,4.079,4.326,4.557C888.703,53.076,889.013,53.107,889.715,53.199z"/>
	<path clip-path="url(#SVGID_2_)" fill-rule="evenodd" clip-rule="evenodd" d="M537.484,26.205
		c-2.295,1.665-4.478,3.275-6.693,4.839c-0.65,0.458-0.944,0.983-0.942,1.787c0.021,5.985,0.012,11.973,0.012,17.871
		c1.813,1.109,3.489,2.136,5.22,3.196c-2.905,2.57-5.608,4.963-8.513,7.532c-2.567-2.743-5.875-4.79-10.126-5.017
		c0.673-2.005,1.853-3.316,3.335-4.277c1.066-0.69,1.487-1.438,1.471-2.717c-0.069-5.434-0.029-10.869-0.029-16.304
		c0-0.08,0.002-0.16-0.001-0.24c-0.112-3.517-1.046-4.726-4.419-5.866c-0.383-0.129-0.792-0.505-0.942-0.868
		c-0.08-0.191,0.31-0.689,0.598-0.902c2.742-2.032,5.508-4.032,8.411-6.146c3.697,2.244,5.267,5.764,5.076,10.527
		c5.085-3.682,9.909-7.175,14.882-10.775c2.283,2.761,4.686,5.284,8.961,3.317c0.165,2.237-0.528,3.979-2.021,5.207
		c-1.225,1.006-1.426,2.123-1.411,3.542c0.05,5.035,0.015,10.07,0.024,15.105c0.002,0.797,0.033,1.598,0.109,2.391
		c0.294,3.103,1.33,4.171,4.442,4.634c0.23,0.034,0.459,0.077,0.966,0.163c-0.193,0.524-0.233,1.101-0.541,1.396
		c-2.181,2.085-4.415,4.113-6.775,6.292c-3.827-0.733-5.877-2.674-6.63-6.713c-0.29-1.561-0.455-3.166-0.47-4.753
		c-0.054-5.834-0.029-11.668-0.015-17.503c0.003-1.22,0.019-2.244-1.389-2.963C539.085,28.456,538.447,27.271,537.484,26.205z"/>
	<path clip-path="url(#SVGID_2_)" fill-rule="evenodd" clip-rule="evenodd" d="M235.518,53.688
		c-1.495,1.877-3.473,2.515-4.909,3.812c-1.417,1.279-2.887,2.503-4.44,3.843c-4.18-2.296-5.216-6.179-5.457-10.887
		c-4.983,3.682-9.757,7.21-14.479,10.7c-1.447-1.184-2.766-2.424-4.245-3.43c-1.612-1.096-3.359-0.047-5.242,0.2
		c-0.009-2.344,0.871-4.123,2.516-5.315c1.184-0.858,1.345-1.82,1.326-3.066c-0.087-5.593-0.125-11.188-0.211-16.781
		c-0.061-3.897-0.755-4.819-4.432-6.11c-0.29-0.102-0.571-0.226-1.06-0.42c0.28-0.462,0.408-0.97,0.725-1.151
		c2.277-1.3,4.053-3.101,5.441-5.295c0.52-0.821,1.137-1.005,2.022-0.66c2.678,1.043,4.729,2.729,5.419,5.623
		c0.385,1.617,0.669,3.297,0.695,4.954c0.102,6.396,0.083,12.793,0.108,19.188c0.002,0.557,0,1.111,0,1.353
		c1.538,1.296,2.854,2.404,4.238,3.571c2.009-1.478,4.114-3.066,6.266-4.589c0.724-0.512,1.036-1.081,1.031-1.978
		c-0.031-5.914-0.016-11.83-0.016-17.685c-1.789-1.163-3.502-2.276-5.166-3.357c2.903-2.421,5.637-4.701,8.612-7.181
		c2.625,2.425,5.738,4.594,10.05,4.717c-0.55,1.937-1.688,3.265-3.132,4.143c-1.252,0.76-1.474,1.675-1.465,2.956
		c0.038,5.438,0.012,10.875,0.022,16.312c0,0.637,0.067,1.274,0.127,1.909c0.194,2.078,1.388,3.329,3.318,3.948
		C233.831,53.221,234.493,53.393,235.518,53.688z"/>
	<path clip-path="url(#SVGID_2_)" fill-rule="evenodd" clip-rule="evenodd" d="M770.415,50.684c1.854,1.147,3.528,2.183,5.197,3.216
		c-2.901,2.593-5.601,5.007-8.435,7.542c-2.662-2.658-5.803-4.885-10.191-4.953c0.721-2.152,1.993-3.512,3.584-4.562
		c0.836-0.553,1.151-1.173,1.145-2.159c-0.035-5.756,0.016-11.512-0.03-17.266c-0.025-3.167-1.059-4.39-4.24-5.481
		c-0.378-0.13-0.789-0.499-0.929-0.856c-0.084-0.213,0.26-0.721,0.537-0.927c2.739-2.042,5.506-4.048,8.393-6.158
		c3.681,2.3,5.344,5.761,4.918,10.646c5.217-3.776,10.102-7.312,15.088-10.921c2.195,3.167,4.758,5.198,8.857,3.425
		c0.083,2.335-0.691,4.14-2.304,5.417c-0.968,0.767-1.172,1.575-1.167,2.668c0.025,5.515,0.009,11.032,0.018,16.546
		c0.001,0.557,0.051,1.116,0.121,1.669c0.373,2.931,1.418,3.999,4.373,4.5c0.305,0.052,0.61,0.105,1.204,0.209
		c-0.298,0.583-0.407,1.183-0.763,1.433c-2.447,1.721-4.467,3.852-6.173,6.245c-3.814-0.475-6.301-2.543-7.104-6.081
		c-0.351-1.546-0.538-3.16-0.549-4.744c-0.04-6.074,0.003-12.149,0.062-18.224c0.012-1.272-0.17-2.216-1.438-2.964
		c-0.974-0.574-1.626-1.691-2.531-2.687c-2.312,1.669-4.652,3.318-6.933,5.047c-0.372,0.282-0.671,0.914-0.676,1.388
		c-0.049,5.116-0.032,10.231-0.034,15.348C770.415,48.95,770.415,49.901,770.415,50.684z"/>
	<path clip-path="url(#SVGID_2_)" fill-rule="evenodd" clip-rule="evenodd" d="M569.79,29.73c5.19-3.793,10.005-7.313,14.924-10.908
		c2.302,2.943,4.776,5.265,8.938,3.378c0.263,2.317-0.656,4.053-2.177,5.37c-0.917,0.793-1.156,1.576-1.15,2.675
		c0.031,5.594,0.011,11.188,0.016,16.783c0.004,4.383,0.859,5.405,5.436,6.264c-0.22,0.494-0.308,1.045-0.629,1.358
		c-2.101,2.053-4.252,4.054-6.646,6.315c-3.233-0.521-5.729-2.458-6.546-6.141c-0.411-1.854-0.607-3.791-0.626-5.692
		c-0.058-5.833,0-11.666,0.059-17.5c0.012-1.115-0.193-1.88-1.251-2.561c-1.035-0.666-1.78-1.779-2.804-2.854
		c-2.197,1.623-4.456,3.238-6.64,4.949c-0.429,0.335-0.798,1.04-0.803,1.577c-0.057,5.988-0.035,11.978-0.035,17.936
		c1.805,1.153,3.521,2.25,5.105,3.263c-2.92,2.562-5.66,4.966-8.531,7.485c-2.55-2.725-5.811-4.72-10.127-5.024
		c0.785-2.043,2.009-3.455,3.656-4.433c0.992-0.588,1.201-1.321,1.19-2.362c-0.057-5.593-0.076-11.187-0.086-16.779
		c-0.006-2.929-1.035-5.464-4.39-5.837c-0.367-0.041-0.805-0.462-0.977-0.82c-0.085-0.176,0.298-0.699,0.583-0.911
		c2.743-2.033,5.511-4.034,8.446-6.171C568.4,21.3,569.98,24.801,569.79,29.73z"/>
	<path clip-path="url(#SVGID_2_)" fill-rule="evenodd" clip-rule="evenodd" d="M709.303,54.333c0-8.597,0-16.74,0-24.991
		c-1.868-0.883-3.796-1.682-4.982-3.317c2.72-2.29,5.394-4.541,8.322-7.006c2.664,2.517,5.873,4.666,10.099,4.717
		c-0.731,2.075-1.926,3.446-3.543,4.404c-0.882,0.522-1.129,1.159-1.123,2.136c0.038,6.078,0.039,12.156,0.01,18.234
		c-0.01,2.146,0.858,3.99,1.857,5.756c-3.242,0.521-6.403,0.929-9.521,1.554c-4.043,0.812-7.752,2.502-11.066,4.946
		c-1.039,0.766-1.891,0.834-3.068,0.457c-4.168-1.335-6.565-4.091-7.063-8.442c-0.173-1.505-0.307-3.023-0.318-4.536
		c-0.038-5.198-0.007-10.396-0.018-15.594c-0.008-4.075-0.796-5.066-4.8-6.176c-0.282-0.078-0.522-0.309-0.925-0.558
		c0.379-0.436,0.648-0.8,0.973-1.109c1.728-1.651,3.549-3.215,5.172-4.963c0.784-0.845,1.494-1.096,2.504-0.723
		c2.615,0.965,4.663,2.51,5.203,5.427c0.318,1.717,0.645,3.458,0.684,5.195c0.125,5.594,0.141,11.191,0.152,16.787
		c0.011,5.2,2.773,7.395,7.062,8.705C706.137,55.61,707.758,54.686,709.303,54.333z"/>
	<path clip-path="url(#SVGID_2_)" fill-rule="evenodd" clip-rule="evenodd" d="M745.634,18.761c2.202,3.127,4.341,6.168,8.889,3.421
		c-0.067,2.281-1.056,3.918-2.453,5.124c-1.192,1.028-1.453,2.099-1.432,3.528c0.076,5.273,0.042,10.549,0.107,15.822
		c0.049,4.06,1.79,6.153,5.936,7.111c-0.344,0.466-0.602,0.907-0.945,1.265c-1.66,1.729-3.373,3.408-5.009,5.159
		c-0.748,0.801-1.466,0.989-2.548,0.661c-2.248-0.681-3.664-2.181-4.629-4.208c-0.407-0.858-0.736-1.754-1.199-2.867
		c-1.166,0.883-2.224,1.685-3.283,2.487c-1.973,1.496-3.984,2.946-5.904,4.508c-0.896,0.729-1.698,0.892-2.835,0.604
		c-4.567-1.158-7.303-3.835-8.142-8.61c-1.454-8.266,2.826-15.824,10.477-18.131c3.106-0.938,6.143-0.755,9.377,0.617
		c0.089-1.525,0.241-2.91,0.209-4.291c-0.012-0.462-0.414-0.991-0.774-1.353c-1.058-1.062-2.185-2.055-3.472-3.249
		c-0.321,0.312-0.754,0.729-1.182,1.15c-1.644,1.622-3.68,1.995-5.776,1.417c-2.623-0.723-5.045-1.943-7.063-3.894
		c1.432-0.843,2.896-1.511,4.122-2.48c1.224-0.967,2.211-2.235,3.354-3.426c0.521,0.904,1.021,1.901,1.638,2.818
		c1.491,2.217,2.964,2.685,5.563,1.955c1.832-0.514,3.281-1.61,4.635-2.87C744.044,20.333,744.766,19.604,745.634,18.761z
		 M742.302,44.445c0-1.996-0.046-3.994,0.018-5.988c0.037-1.131-0.45-1.762-1.441-2.198c-2.397-1.058-6.786-1.033-9.288,2.31
		c-3,4.01-1.962,10.403,2.256,13.119c1.253,0.806,2.704,1.349,4.124,1.839c1.917,0.661,4.263-1.046,4.318-3.091
		C742.343,48.44,742.3,46.442,742.302,44.445z"/>
	<path clip-path="url(#SVGID_2_)" fill-rule="evenodd" clip-rule="evenodd" d="M824.417,18.833c0.754,1.319,1.238,2.332,1.872,3.241
		c1.467,2.108,2.9,2.542,5.395,1.855c1.834-0.505,3.299-1.581,4.661-2.835c0.758-0.697,1.486-1.423,2.183-2.092
		c1.392,1.334,2.58,2.734,4.022,3.784c1.602,1.167,3.329,0.29,5.297-0.596c-0.498,2.376-1.385,4.141-2.94,5.385
		c-0.972,0.778-1.146,1.583-1.141,2.669c0.027,4.957,0.01,9.914,0.016,14.87c0.001,0.639,0.033,1.277,0.075,1.915
		c0.262,3.923,1.719,5.608,6.148,6.854c-0.933,0.938-1.764,1.767-2.587,2.604c-1.119,1.141-2.237,2.282-3.346,3.433
		c-1.306,1.354-1.628,1.453-3.344,0.722c-1.921-0.82-3.279-2.239-4.132-4.135c-0.356-0.794-0.652-1.616-1.053-2.616
		c-0.597,0.383-1.119,0.672-1.591,1.027c-2.617,1.97-5.241,3.933-7.821,5.951c-0.832,0.65-1.597,0.779-2.637,0.521
		c-4.678-1.156-7.526-3.881-8.214-8.797c-0.889-6.361,0.673-11.782,5.978-15.68c3.971-2.916,8.393-3.761,13.141-1.973
		c0.208,0.078,0.438,0.102,0.786,0.181c0.072-1.407,0.188-2.752,0.181-4.096c-0.001-0.418-0.23-0.936-0.529-1.234
		c-1.172-1.167-2.412-2.266-3.653-3.413c-0.005,0.001-0.1,0.001-0.138,0.047c-2.391,2.93-5.195,3.621-9.462,1.533
		c-1.56-0.763-3-1.769-4.796-2.844C819.951,23.509,822.768,22.04,824.417,18.833z M835.422,44.514c0-1.918-0.094-3.842,0.03-5.751
		c0.096-1.487-0.623-2.166-1.863-2.656c-2.935-1.16-6.665-0.164-8.729,2.215c-3.179,3.668-2.04,10.951,1.841,13.215
		c1.299,0.757,2.684,1.404,4.096,1.919c2.217,0.807,4.566-0.852,4.616-3.188C835.456,48.35,835.422,46.432,835.422,44.514z"/>
	<path clip-path="url(#SVGID_2_)" fill-rule="evenodd" clip-rule="evenodd" d="M609.172,61.668
		c-1.143-0.855-2.124-1.667-3.183-2.362c-1.062-0.696-2.144-1.422-3.316-1.88c-2.631-1.025-4.567-0.418-6.366,1.795
		c-0.348,0.429-0.664,0.884-1.03,1.373c-1.228-0.302-1.365-1.027-0.815-1.943c0.986-1.642,1.896-3.356,3.087-4.84
		c2.497-3.11,5.156-6.09,7.748-9.123c0.402-0.47,0.807-0.938,1.445-1.682c-3.359,0-6.371,0-9.445,0
		c2.215-6.299,1.785-12.403,0.076-18.648c6.906,1.278,12.877-1.105,18.276-5.546c0.669,0.606,1.219,1.181,1.846,1.654
		c0.824,0.622,1.651,1.291,2.579,1.715c2.498,1.143,4.216,0.636,5.832-1.571c0.23-0.315,0.426-0.658,0.64-0.991
		c0.911,0.248,1.015,0.827,0.721,1.474c-0.758,1.668-1.4,3.424-2.399,4.941c-1.885,2.861-3.986,5.581-6.002,8.356
		c-0.273,0.377-0.57,0.738-1.073,1.385c3.626,0,6.945,0,10.666,0c-3.037,5.09-1.759,10.327-1.67,15.433
		c0.03,1.685,0.786,3.356,1.243,5.162C620.942,54.851,614.562,56.498,609.172,61.668z M618.327,40.082
		c-1.491,0-2.684-0.084-3.855,0.032c-0.667,0.065-1.409,0.317-1.934,0.724c-4.1,3.181-7.923,6.667-11.323,10.598
		c-0.25,0.288-0.416,0.649-0.823,1.298c2.186-0.871,3.917-1.664,5.715-2.255c3.001-0.987,5.674-0.231,7.926,1.918
		c0.967,0.922,1.787,1.997,2.68,3.009c0.927-0.175,1.643-0.445,1.632-1.635C618.303,49.314,618.327,44.857,618.327,40.082z
		 M606.458,38.848c1.369,0,2.624-0.067,3.868,0.019c1.229,0.086,2.117-0.354,2.928-1.253c2.081-2.31,4.29-4.504,6.317-6.857
		c1.421-1.65,2.627-3.485,3.93-5.238c-1.509,0.553-2.672,1.46-3.927,2.216c-2.881,1.737-5.739,1.691-8.479-0.355
		c-0.509-0.38-1.053-0.771-1.418-1.275c-0.873-1.205-1.896-1.263-3.22-0.592C606.458,29.843,606.458,34.191,606.458,38.848z"/>
	<path clip-path="url(#SVGID_2_)" fill-rule="evenodd" clip-rule="evenodd" d="M390.737,32.916c-5.125,3.193-9.863,6.145-14.599,9.1
		c-1.151,0.718-2.272,1.487-3.453,2.154c-0.795,0.45-1.118,1.037-1.084,1.939c0.049,1.353,0.013,2.709,0.013,3.951
		c3.682,1.563,7.247,3.077,11.195,4.753c1.308-0.916,2.99-2.094,4.746-3.323c0.844,0.693,1.205,1.347,0.211,2.105
		c-3.237,2.471-6.502,4.906-9.726,7.395c-0.774,0.598-1.482,0.412-2.221,0.072c-1.592-0.734-3.139-1.58-4.765-2.227
		c-4.096-1.631-8.277-2.927-12.945-2.461c0.842-2.13,2.112-3.644,3.769-4.795c0.746-0.518,1.036-1.059,1.031-1.947
		c-0.029-6.551,0.013-13.104-0.037-19.654c-0.017-2.121-0.773-4.059-2.211-6.083c7.677,1.279,14.624,0.364,20.669-5.13
		C383.724,23.972,386.263,28.892,390.737,32.916z M381.066,36.777c-2.222-4.182-4.31-8.112-6.494-12.222
		c-0.984,0.264-1.944,0.52-2.894,0.774c0,5.768,0,11.371,0,17.229C374.932,40.554,377.966,38.685,381.066,36.777z"/>
	<path clip-path="url(#SVGID_2_)" fill-rule="evenodd" clip-rule="evenodd" d="M485.814,56.366c0.91-2.131,2.073-3.645,3.689-4.729
		c0.824-0.553,1.175-1.115,1.168-2.117c-0.042-6.231,0.003-12.463-0.034-18.693c-0.014-2.435-0.725-4.7-2.216-6.953
		c7.7,1.397,14.625,0.237,20.642-5.084c2.365,5.205,4.837,10.116,9.269,14.032c-0.804,0.572-1.4,1.044-2.041,1.445
		c-5.139,3.222-10.258,6.477-15.45,9.608c-1.204,0.726-1.676,1.527-1.568,2.877c0.095,1.179,0.02,2.371,0.02,3.281
		c3.821,1.639,7.384,3.167,11.229,4.816c1.401-0.997,3.075-2.188,4.779-3.4c0.894,0.841,1.072,1.51,0.095,2.243
		c-3.194,2.396-6.383,4.798-9.553,7.225c-0.638,0.488-1.245,0.646-1.979,0.291c-0.572-0.277-1.169-0.508-1.74-0.789
		C497.07,57.927,491.893,55.913,485.814,56.366z M508.786,36.775c-2.265-4.249-4.36-8.182-6.476-12.152
		c-0.541,0.094-1.016,0.141-1.47,0.264c-0.521,0.142-1.022,0.351-1.475,0.51c-0.393,4.526-0.245,15.218,0.248,17.035
		C502.683,40.54,505.724,38.664,508.786,36.775z"/>
	<path clip-path="url(#SVGID_2_)" fill-rule="evenodd" clip-rule="evenodd" d="M83.149,56.194c0.703-1.98,2.027-3.455,3.665-4.595
		c0.854-0.595,1.062-1.232,1.055-2.176c-0.053-6.231-0.02-12.463-0.115-18.694c-0.037-2.393-0.509-4.732-2.264-6.897
		c7.798,1.459,14.724,0.283,20.681-4.93c1.372,2.593,2.513,5.136,4.002,7.455c1.457,2.27,3.269,4.312,5.06,6.629
		c-0.316,0.249-0.753,0.663-1.254,0.977c-5.284,3.292-10.559,6.598-15.882,9.825c-1.144,0.692-1.784,1.42-1.628,2.833
		c0.13,1.182,0.026,2.39,0.026,3.45c3.667,1.563,7.226,3.08,11.112,4.736c1.344-0.927,3.036-2.094,4.716-3.251
		c1.233,1.27,1.279,1.33,0.23,2.13c-3.175,2.421-6.408,4.765-9.573,7.199c-0.754,0.58-1.433,0.59-2.198,0.229
		c-1.37-0.646-2.703-1.373-4.093-1.972C91.986,57.116,90.178,56.739,83.149,56.194z M96.635,25.333c0,5.759,0,11.358,0,17.221
		c3.308-2.037,6.393-3.938,9.379-5.777c-2.238-4.195-4.329-8.118-6.525-12.236C98.539,24.805,97.582,25.07,96.635,25.333z"/>
	<path clip-path="url(#SVGID_2_)" fill-rule="evenodd" clip-rule="evenodd" d="M668.804,5.017c4.686,0.131,8.809-1.109,12.524-3.684
		c0.078,0.238,0.206,0.423,0.158,0.512c-1.605,2.961-2.048,6.127-2.028,9.474c0.076,12.468,0.048,24.937,0.008,37.406
		c-0.006,1.472,0.162,2.511,1.758,3.185c1.194,0.504,2.133,1.616,3.299,2.548c0.926-0.437,1.985-0.936,3.142-1.479
		c0.248,0.431,0.438,0.762,0.638,1.107c-3.524,2.446-6.981,4.846-10.494,7.283c-5.11-4.295-5.11-4.295-10.877-3.142
		c-0.049-2.221,0.554-4.139,2.388-5.331c1.134-0.737,1.353-1.55,1.351-2.749c-0.028-13.107-0.048-26.216,0.013-39.324
		C670.692,8.718,669.914,6.963,668.804,5.017z"/>
	<path clip-path="url(#SVGID_2_)" fill-rule="evenodd" clip-rule="evenodd" d="M405.52,28.349c-1.782,1.302-2.117,2.951-2.071,4.926
		c0.119,5.109,0.077,10.225,0.016,15.336c-0.017,1.394,0.192,2.336,1.641,3.029c1.329,0.636,2.405,1.803,3.726,2.841
		c0.794-0.429,1.684-0.909,2.595-1.401c0.812,0.732,1.07,1.293-0.062,2.011c-3.217,2.039-6.379,4.166-9.703,6.351
		c-2.772-2.929-5.986-5.279-10.653-3.169c0.079-2.396,1.023-4.108,2.626-5.384c0.938-0.747,1.177-1.563,1.161-2.675
		c-0.078-5.75-0.091-11.5-0.149-17.249c-0.038-3.668-0.927-4.822-4.515-6.032c-0.277-0.093-0.506-0.326-1.019-0.667
		c1.376-1.533,3.194-2.243,4.58-3.471c1.43-1.269,2.89-2.504,4.429-3.832c3.449,1.819,4.883,4.847,5.324,8.751
		c1.698-1.253,2.623-2.91,3.762-4.364c1.129-1.441,2.214-2.917,3.451-4.551c0.592,0.835,1.096,1.52,1.573,2.223
		c2.178,3.204,3.038,3.657,6.739,3.435c-0.256,2.822-1.185,5.293-3.436,7.064c-3.035,2.389-7.093,1.635-9.149-1.606
		C406.09,29.446,405.848,28.944,405.52,28.349z"/>
	<path clip-path="url(#SVGID_2_)" fill-rule="evenodd" clip-rule="evenodd" d="M803.62,18.965c2.716,2.719,5.891,4.585,9.987,4.838
		c-0.743,1.924-1.891,3.307-3.444,4.305c-0.999,0.643-1.302,1.429-1.292,2.578c0.047,5.588,0.003,11.179,0.04,16.769
		c0.006,0.861,0.184,1.745,0.423,2.578c0.423,1.473,1.356,2.489,2.905,2.885c0.731,0.187,1.437,0.479,2.538,0.854
		c-3.31,2.637-6.259,4.985-9.34,7.44c-2.091-0.796-3.478-2.556-4.206-4.697c-0.58-1.704-0.907-3.57-0.937-5.371
		c-0.108-6.467-0.043-12.936-0.043-19.403c0-0.79,0-1.578,0-2.178c-1.846-1.194-3.493-2.261-5.189-3.359
		C797.994,23.725,800.705,21.432,803.62,18.965z"/>
	<path clip-path="url(#SVGID_2_)" fill-rule="evenodd" clip-rule="evenodd" d="M30.735,14.621c0,0.749,0.002,1.534,0,2.319
		c-0.025,7.345-0.085,14.69-0.06,22.036c0.011,3.168-1.375,5.511-3.907,7.238c-2.268,1.547-4.87,2.287-7.967,3.11
		c2.354-3.071,2.069-6.311,2.063-9.507c-0.01-5.19,0.002-10.381-0.008-15.571c-0.001-0.772-0.07-1.545-0.12-2.573
		c-1.2,0.416-2.148,0.744-3.208,1.111c-0.267-0.78-0.609-1.501,0.406-1.992C22.152,18.755,26.373,16.724,30.735,14.621z"/>
	<path clip-path="url(#SVGID_2_)" fill-rule="evenodd" clip-rule="evenodd" d="M812.042,5.268c0.035,5.433-4.973,8.623-9.535,6.28
		c-0.496-0.254-0.97-0.555-1.45-0.839c-1.779-1.052-1.778-1.053-3.743-0.041c-0.264-0.335-0.542-0.69-0.834-1.062
		c2.594-2.704,5.131-5.353,7.677-7.993c0.158-0.164,0.381-0.265,0.652-0.449C806.36,4.062,808.145,6.588,812.042,5.268z"/>
	<path clip-path="url(#SVGID_2_)" fill-rule="evenodd" clip-rule="evenodd" fill="none" d="M469.056,8.275
		c2.541,3.063,1.833,3.343,7.177,4.988c0,12.704,0,25.444,0,38.53c-3.64-2.533-6.922-5.098-11.175-6.148c0-0.983,0-1.848,0-2.712
		c0-9.669,0.08-19.34-0.061-29.007c-0.032-2.203,0.623-3.634,2.471-4.65C468.02,8.973,468.535,8.605,469.056,8.275z"/>
	<path clip-path="url(#SVGID_2_)" fill-rule="evenodd" clip-rule="evenodd" fill="none" d="M463.36,74.339
		c-2.313-0.689-3.336-2.233-3.622-4.23c-0.26-1.812-0.343-3.662-0.349-5.496c-0.051-15.437-0.008-30.875-0.152-46.311
		c-0.021-2.354,0.535-3.99,2.614-5.071c0.481-0.25,0.913-0.597,1.403-0.923C463.695,14.158,463.799,71.458,463.36,74.339z"/>
	<path clip-path="url(#SVGID_2_)" fill-rule="evenodd" clip-rule="evenodd" fill="none" d="M175.982,13.395
		c-0.203,0.395-0.301,0.612-0.422,0.817c-1.362,2.311-3.104,3.464-6.042,2.976c-3.765-0.626-7.619-0.706-11.424-1.115
		c-1.013-0.109-1.986-0.568-2.98-0.854c-1.89-0.543-3.02-1.709-3.139-3.741c-0.125-2.132,0.3-4.126,2.365-5.095
		c1.476-0.692,3.165-1.191,4.782-1.263c3.073-0.136,6.003,0.721,8.746,2.146C170.874,8.828,173.457,10.945,175.982,13.395z"/>
	<path clip-path="url(#SVGID_2_)" fill-rule="evenodd" clip-rule="evenodd" fill="none" d="M742.301,44.445
		c-0.001,1.997,0.042,3.995-0.013,5.99c-0.056,2.045-2.401,3.752-4.318,3.091c-1.42-0.49-2.871-1.033-4.124-1.839
		c-4.218-2.716-5.256-9.109-2.256-13.119c2.502-3.343,6.891-3.367,9.288-2.31c0.991,0.437,1.479,1.067,1.441,2.198
		C742.256,40.451,742.302,42.449,742.301,44.445z"/>
	<path clip-path="url(#SVGID_2_)" fill-rule="evenodd" clip-rule="evenodd" fill="none" d="M835.422,44.514
		c0,1.918,0.033,3.836-0.009,5.753c-0.05,2.337-2.399,3.995-4.616,3.188c-1.412-0.515-2.797-1.162-4.096-1.919
		c-3.881-2.264-5.02-9.547-1.841-13.215c2.063-2.379,5.794-3.375,8.729-2.215c1.24,0.49,1.959,1.169,1.863,2.656
		C835.329,40.672,835.422,42.596,835.422,44.514z"/>
	<path clip-path="url(#SVGID_2_)" fill-rule="evenodd" clip-rule="evenodd" fill="none" d="M618.327,40.082
		c0,4.775-0.023,9.232,0.017,13.688c0.011,1.189-0.705,1.46-1.632,1.635c-0.893-1.012-1.713-2.087-2.68-3.009
		c-2.252-2.149-4.925-2.905-7.926-1.918c-1.798,0.591-3.529,1.384-5.715,2.255c0.407-0.648,0.573-1.01,0.823-1.298
		c3.4-3.931,7.224-7.417,11.323-10.598c0.524-0.406,1.267-0.658,1.934-0.724C615.643,39.998,616.835,40.082,618.327,40.082z"/>
	<path clip-path="url(#SVGID_2_)" fill-rule="evenodd" clip-rule="evenodd" fill="none" d="M606.458,38.848
		c0-4.657,0-9.005,0-13.336c1.324-0.671,2.347-0.613,3.22,0.592c0.365,0.504,0.909,0.895,1.418,1.275
		c2.739,2.046,5.598,2.092,8.479,0.355c1.255-0.756,2.418-1.663,3.927-2.216c-1.303,1.753-2.509,3.588-3.93,5.238
		c-2.027,2.354-4.236,4.548-6.317,6.857c-0.811,0.899-1.699,1.339-2.928,1.253C609.082,38.781,607.827,38.848,606.458,38.848z"/>
	<path clip-path="url(#SVGID_2_)" fill-rule="evenodd" clip-rule="evenodd" fill="none" d="M381.066,36.777
		c-3.1,1.908-6.134,3.777-9.388,5.781c0-5.858,0-11.462,0-17.229c0.95-0.254,1.91-0.51,2.894-0.774
		C376.756,28.665,378.845,32.595,381.066,36.777z"/>
	<path clip-path="url(#SVGID_2_)" fill-rule="evenodd" clip-rule="evenodd" fill="none" d="M508.786,36.775
		c-3.062,1.889-6.103,3.765-9.172,5.657c-0.493-1.817-0.641-12.509-0.248-17.035c0.452-0.159,0.954-0.369,1.475-0.51
		c0.454-0.124,0.929-0.17,1.47-0.264C504.425,28.593,506.521,32.526,508.786,36.775z"/>
	<path clip-path="url(#SVGID_2_)" fill-rule="evenodd" clip-rule="evenodd" fill="none" d="M96.635,25.333
		c0.947-0.263,1.904-0.529,2.854-0.792c2.196,4.118,4.288,8.041,6.525,12.236c-2.986,1.84-6.072,3.74-9.379,5.777
		C96.635,36.692,96.635,31.093,96.635,25.333z"/>
</g>
</svg>
