<?xml version="1.0" encoding="utf-8"?>
<!-- Generator: Adobe Illustrator 16.0.0, SVG Export Plug-In . SVG Version: 6.00 Build 0)  -->
<!DOCTYPE svg PUBLIC "-//W3C//DTD SVG 1.1//EN" "http://www.w3.org/Graphics/SVG/1.1/DTD/svg11.dtd">
<svg version="1.1" id="Layer_1" xmlns="http://www.w3.org/2000/svg" xmlns:xlink="http://www.w3.org/1999/xlink" x="0px" y="0px"
	 width="175.051px" height="58.664px" viewBox="0 0 175.051 58.664" enable-background="new 0 0 175.051 58.664"
	 xml:space="preserve">
<path d="M28.893,7.949l-5.758,3.444c-1.077-1.886-2.103-3.116-3.077-3.69c-1.016-0.657-2.326-0.985-3.931-0.985
	c-1.969,0-3.603,0.565-4.903,1.694c-1.3,1.107-1.95,2.502-1.95,4.182c0,2.32,1.71,4.188,5.134,5.601l4.705,1.937
	c3.83,1.561,6.631,3.463,8.405,5.708c1.77,2.246,2.658,5,2.658,8.26c0,4.37-1.447,7.979-4.336,10.83
	c-2.908,2.873-6.516,4.308-10.82,4.308c-4.084,0-7.455-1.222-10.116-3.668C2.283,43.125,0.65,39.689,0,35.259l7.19-1.6
	c0.324,2.789,0.892,4.719,1.705,5.782c1.462,2.052,3.593,3.076,6.399,3.076c2.212,0,4.05-0.747,5.513-2.242
	C22.27,38.783,23,36.887,23,34.591c0-0.922-0.129-1.766-0.382-2.533s-0.649-1.473-1.187-2.12c-0.54-0.644-1.236-1.248-2.089-1.811
	c-0.852-0.564-1.867-1.102-3.044-1.614l-4.541-1.906c-6.44-2.742-9.658-6.756-9.658-12.042c0-3.562,1.342-6.544,4.026-8.94
	C8.813,1.209,12.166,0,16.189,0C21.611,0,25.845,2.65,28.893,7.949"/>
<path d="M58.768,22.735h2.261c6.741,0,10.113-2.593,10.113-7.781c0-4.859-3.281-7.29-9.839-7.29h-2.535V22.735 M67.642,28.175
	l14.61,20.224h-8.703L60.053,28.96h-1.285v19.439h-7.072V0.944h8.336c6.228,0,10.728,1.18,13.496,3.535
	c3.054,2.623,4.58,6.086,4.58,10.388c0,3.361-0.959,6.25-2.876,8.668S70.783,27.5,67.642,28.175"/>
<polyline points="112.068,7.664 93.211,7.664 93.211,19.107 111.518,19.107 111.518,25.826 93.211,25.826 93.211,41.679 
	112.068,41.679 112.068,48.399 86.14,48.399 86.14,0.944 112.068,0.944 112.068,7.664 "/>
<polyline points="144.227,7.664 125.369,7.664 125.369,19.107 143.678,19.107 143.678,25.826 125.369,25.826 125.369,41.679 
	144.227,41.679 144.227,48.399 118.298,48.399 118.298,0.944 144.227,0.944 144.227,7.664 "/>
<polyline points="164.266,7.664 164.266,48.399 157.193,48.399 157.193,7.664 146.379,7.664 146.379,0.944 175.051,0.944 
	175.051,7.664 164.266,7.664 "/>
<polyline points="41.839,5.336 41.839,32.475 37.158,32.475 37.158,5.336 29.949,5.336 29.949,0.821 49.028,0.821 49.028,5.336 
	41.839,5.336 "/>
<path d="M37.055,37.388c0.74-0.018,1.331-0.547,1.331-1.318c0-0.689-0.566-1.234-1.239-1.234c-0.725,0-1.173,0.479-1.215,1.201h-0.4
	c0.068-0.957,0.65-1.58,1.622-1.58c0.899,0,1.631,0.713,1.631,1.629c0,0.647-0.357,1.209-0.939,1.472
	c0.631,0.243,1.031,0.873,1.031,1.536c0,1.051-0.791,1.865-1.84,1.865c-0.939,0-1.746-0.664-1.737-1.639h0.399
	c0.067,0.73,0.565,1.26,1.33,1.26c0.791,0,1.448-0.672,1.448-1.461c0-0.824-0.641-1.353-1.422-1.353V37.388"/>
<path d="M43.102,35.548h-0.049l-2.604,3.695v0.051h2.653V35.548 M44.384,39.294v0.377h-0.882v1.201h-0.4v-1.201h-3.385v-0.051
	l3.734-5.299h0.051v4.973H44.384"/>
<polyline points="36.613,48.433 36.215,48.433 36.215,42.478 34.592,42.478 34.592,42.1 38.236,42.1 38.236,42.478 36.613,42.478 
	36.613,48.433 "/>
<polyline points="43.086,44.789 43.086,42.1 43.485,42.1 43.485,48.433 43.086,48.433 43.086,45.166 39.275,45.166 39.275,48.433 
	38.877,48.433 38.877,42.1 39.275,42.1 39.275,44.789 43.086,44.789 "/>
<polyline points="81.354,56.394 80.979,56.394 80.979,52.869 80.555,52.869 80.555,52.514 80.979,52.514 80.979,51.128 
	81.354,51.128 81.354,52.514 82.027,52.514 82.027,52.869 81.354,52.869 81.354,56.394 "/>
<path d="M82.967,49.464v3.654h0.015c0.225-0.429,0.641-0.688,1.141-0.688c0.99,0,1.264,0.62,1.264,1.62v2.344h-0.373V54.05
	c0-0.695-0.084-1.268-0.924-1.268c-0.965,0-1.123,0.907-1.123,1.695v1.915h-0.375v-6.929H82.967"/>
<path d="M87.102,56.394h-0.375v-3.88h0.375V56.394z M87.258,51.22c0,0.195-0.148,0.345-0.34,0.345s-0.342-0.149-0.342-0.345
	c0-0.184,0.15-0.344,0.342-0.344S87.258,51.037,87.258,51.22"/>
<path d="M88.824,53.019h0.017c0.147-0.354,0.423-0.589,0.831-0.589c0.15,0,0.273,0.034,0.408,0.092l-0.2,0.337
	c-0.091-0.05-0.165-0.074-0.267-0.074c-0.84,0-0.789,1.057-0.789,1.627v1.982h-0.375v-3.88h0.375V53.019"/>
<polyline points="91.259,56.394 90.885,56.394 90.885,52.869 90.461,52.869 90.461,52.514 90.885,52.514 90.885,51.128 
	91.259,51.128 91.259,52.514 91.934,52.514 91.934,52.869 91.259,52.869 91.259,56.394 "/>
<polyline points="91.799,52.514 92.189,52.514 93.829,56.025 95.302,52.514 95.684,52.514 93.105,58.664 92.723,58.664 
	93.646,56.462 91.799,52.514 "/>
<path d="M96.615,56.394h-0.373v-3.525h-0.426v-0.354h0.426v-1.739c0-0.285,0.008-0.695,0.148-0.947
	c0.176-0.312,0.508-0.471,0.856-0.471c0.116,0,0.226,0.018,0.333,0.059v0.346c-0.102-0.018-0.2-0.051-0.309-0.051
	c-0.648,0-0.657,0.654-0.657,1.143v1.662h0.966v0.354h-0.966L96.615,56.394"/>
<path d="M98.154,54.462c0,0.884,0.691,1.662,1.598,1.662c0.939,0,1.672-0.721,1.672-1.662c0-0.957-0.725-1.68-1.672-1.68
	C98.836,52.785,98.154,53.564,98.154,54.462 M101.799,54.457c0,1.148-0.891,2.022-2.021,2.022c-1.106,0-1.995-0.916-1.995-2.017
	c0-1.116,0.881-2.032,1.995-2.032C100.908,52.43,101.799,53.305,101.799,54.457"/>
<path d="M105.326,52.514v2.327c0,0.395,0.008,0.789-0.232,1.117c-0.267,0.353-0.717,0.521-1.148,0.521
	c-0.434,0-0.883-0.168-1.147-0.521c-0.241-0.328-0.233-0.724-0.233-1.117v-2.327h0.375v2.192c0,0.746,0.084,1.418,1.008,1.418
	c0.922,0,1.006-0.672,1.006-1.418v-2.192H105.326"/>
<path d="M106.841,53.019h0.017c0.148-0.354,0.425-0.589,0.83-0.589c0.151,0,0.275,0.034,0.408,0.092l-0.199,0.337
	c-0.092-0.05-0.166-0.074-0.267-0.074c-0.841,0-0.789,1.057-0.789,1.627v1.982h-0.375v-3.88h0.375V53.019"/>
<polyline points="109.275,56.394 108.9,56.394 108.9,52.869 108.477,52.869 108.477,52.514 108.9,52.514 108.9,51.128 
	109.275,51.128 109.275,52.514 109.949,52.514 109.949,52.869 109.275,52.869 109.275,56.394 "/>
<path d="M110.889,49.464v3.654h0.019c0.224-0.429,0.639-0.688,1.139-0.688c0.99,0,1.265,0.62,1.265,1.62v2.344h-0.373V54.05
	c0-0.695-0.084-1.268-0.924-1.268c-0.966,0-1.123,0.907-1.123,1.695v1.915h-0.375v-6.929H110.889"/>
<path fill="#9C9C9C" d="M115.424,56.48c-0.641,0-1.164-0.396-1.322-1.023l0.365-0.121c0.139,0.463,0.447,0.791,0.957,0.791
	c0.48,0,0.865-0.385,0.865-0.875c0-0.479-0.369-0.627-0.75-0.764c-0.523-0.193-1.123-0.42-1.123-1.074
	c0-0.59,0.49-0.982,1.049-0.982c0.391,0,0.812,0.262,0.979,0.621l-0.322,0.169c-0.124-0.267-0.374-0.437-0.676-0.437
	c-0.321,0-0.653,0.268-0.653,0.603c0,0.937,1.873,0.481,1.873,1.884C116.664,55.983,116.111,56.48,115.424,56.48"/>
<polyline fill="#9C9C9C" points="117.959,56.395 117.584,56.395 117.584,52.867 117.16,52.867 117.16,52.514 117.584,52.514 
	117.584,51.128 117.959,51.128 117.959,52.514 118.633,52.514 118.633,52.867 117.959,52.867 117.959,56.395 "/>
<path fill="#9C9C9C" d="M119.572,56.395h-0.373v-3.881h0.373v0.506h0.021c0.146-0.354,0.423-0.59,0.832-0.59
	c0.146,0,0.273,0.034,0.404,0.092l-0.2,0.336c-0.088-0.051-0.166-0.073-0.266-0.073c-0.84,0-0.791,1.057-0.791,1.627V56.395"/>
<path fill="#9C9C9C" d="M122.918,56.48c-1.141,0-1.865-0.934-1.865-2.034c0-1.083,0.744-2.016,1.865-2.016
	c1.164,0,1.854,0.938,1.846,2.058h-3.334c-0.025,0.982,0.648,1.639,1.539,1.639c0.596,0,1.082-0.361,1.355-0.883l0.316,0.186
	C124.289,56.102,123.678,56.48,122.918,56.48 M122.926,52.785c-0.781,0-1.43,0.62-1.496,1.35h2.961
	C124.297,53.421,123.715,52.785,122.926,52.785"/>
<path fill="#9C9C9C" d="M127.08,56.48c-1.143,0-1.865-0.934-1.865-2.034c0-1.083,0.739-2.016,1.865-2.016
	c1.163,0,1.854,0.938,1.846,2.058h-3.337c-0.024,0.982,0.647,1.639,1.537,1.639c0.601,0,1.083-0.361,1.356-0.883l0.315,0.186
	C128.451,56.102,127.835,56.48,127.08,56.48 M127.088,52.785c-0.783,0-1.436,0.62-1.499,1.35h2.963
	C128.459,53.421,127.877,52.785,127.088,52.785"/>
<polyline fill="#9C9C9C" points="130.162,56.395 129.789,56.395 129.789,52.867 129.363,52.867 129.363,52.514 129.789,52.514 
	129.789,51.128 130.162,51.128 130.162,52.514 130.837,52.514 130.837,52.867 130.162,52.867 130.162,56.395 "/>
<path d="M131.777,53.003h0.018c0.174-0.362,0.557-0.573,0.965-0.573c0.49,0,0.883,0.252,1.081,0.706
	c0.208-0.461,0.632-0.706,1.122-0.706c0.991,0,1.191,0.68,1.191,1.528v2.436h-0.375V53.91c0-0.598-0.092-1.125-0.824-1.125
	c-0.799,0-0.989,0.705-0.989,1.377v2.232h-0.375v-2.393c0-0.606-0.106-1.219-0.856-1.219c-0.807,0-0.955,0.848-0.955,1.479v2.133
	h-0.375v-3.88h0.375v0.489"/>
<path d="M137.352,54.43c0,0.889,0.584,1.694,1.515,1.694c0.981,0,1.514-0.807,1.514-1.737c0-0.897-0.606-1.604-1.539-1.604
	C137.959,52.785,137.352,53.589,137.352,54.43 M140.729,56.394h-0.375v-0.695h-0.016c-0.281,0.495-0.898,0.78-1.464,0.78
	c-1.165,0-1.897-0.916-1.897-2.049c0-1.136,0.726-2,1.881-2c0.592,0,1.156,0.269,1.48,0.756h0.016v-0.672h0.375V56.394"/>
<path d="M141.984,54.43c0,0.889,0.582,1.694,1.516,1.694c0.98,0,1.514-0.807,1.514-1.737c0-0.897-0.607-1.604-1.539-1.604
	C142.592,52.785,141.984,53.589,141.984,54.43 M145.361,56.21c0,0.596-0.018,1.133-0.383,1.646
	c-0.356,0.496-0.924,0.748-1.531,0.748c-1.006,0-1.836-0.597-1.896-1.662h0.374c0.043,0.806,0.717,1.31,1.49,1.31
	c0.482,0,0.947-0.168,1.23-0.58c0.299-0.443,0.34-0.948,0.34-1.469v-0.479h-0.016c-0.342,0.463-0.916,0.757-1.498,0.757
	c-1.113,0-1.861-0.95-1.861-2.031c0-1.119,0.789-2.018,1.912-2.018c0.625,0,1.09,0.27,1.447,0.756h0.016v-0.672h0.375V56.21"/>
<path d="M146.561,54.43c0,0.889,0.582,1.694,1.514,1.694c0.98,0,1.515-0.807,1.515-1.737c0-0.897-0.606-1.604-1.539-1.604
	C147.166,52.785,146.561,53.589,146.561,54.43 M149.938,56.394h-0.375v-0.695h-0.016c-0.283,0.495-0.898,0.78-1.465,0.78
	c-1.164,0-1.896-0.916-1.896-2.049c0-1.136,0.726-2,1.881-2c0.591,0,1.156,0.269,1.48,0.756h0.016v-0.672h0.375V56.394"/>
<polyline points="154.43,56.042 154.43,56.394 150.52,56.394 153.664,52.869 151.027,52.869 151.027,52.514 154.445,52.514 
	151.311,56.042 154.43,56.042 "/>
<path d="M155.562,56.394h-0.375v-3.88h0.375V56.394z M155.719,51.22c0,0.195-0.15,0.345-0.342,0.345c-0.189,0-0.34-0.149-0.34-0.345
	c0-0.184,0.15-0.344,0.34-0.344C155.568,50.876,155.719,51.037,155.719,51.22"/>
<path d="M157.283,53.119h0.016c0.225-0.428,0.641-0.688,1.141-0.688c0.99,0,1.266,0.621,1.266,1.621v2.343h-0.374v-2.343
	c0-0.696-0.084-1.268-0.924-1.268c-0.966,0-1.123,0.906-1.123,1.694v1.915h-0.374v-3.88h0.374L157.283,53.119"/>
<path d="M163.863,54.134c-0.092-0.713-0.674-1.352-1.465-1.352c-0.783,0-1.431,0.621-1.498,1.352H163.863 M160.9,54.49
	c-0.023,0.981,0.648,1.637,1.539,1.637c0.6,0,1.082-0.36,1.355-0.883l0.314,0.186c-0.348,0.673-0.963,1.051-1.721,1.051
	c-1.14,0-1.863-0.934-1.863-2.031c0-1.086,0.74-2.018,1.863-2.018c1.166,0,1.855,0.941,1.846,2.059H160.9"/>
</svg>
