<?xml version="1.0" encoding="utf-8"?>
<!-- Generator: Adobe Illustrator 16.0.4, SVG Export Plug-In . SVG Version: 6.00 Build 0)  -->
<!DOCTYPE svg PUBLIC "-//W3C//DTD SVG 1.1//EN" "http://www.w3.org/Graphics/SVG/1.1/DTD/svg11.dtd">
<svg version="1.1" id="Layer_1" xmlns="http://www.w3.org/2000/svg" xmlns:xlink="http://www.w3.org/1999/xlink" x="0px" y="0px"
	 width="146.982px" height="219.498px" viewBox="0 0 146.982 219.498" enable-background="new 0 0 146.982 219.498"
	 xml:space="preserve">
<g>
	<g>
		<path fill="#3C4040" d="M9.886,79.047c0.15,3.899,1.351,7.649,3.3,10.649c3.75,5.4,11.1,9.3,17.699,9.3
			c12.3,0,22.499-10.8,22.499-23.249c0-8.55-4.199-15-9.449-18.299c-3.3-2.1-7.949-3-12.749-3v-6c7.649,0,12.449-3.75,13.499-4.649
			c4.35-3.6,7.35-9.75,7.35-16.35c0-10.649-6.75-19.499-19.199-19.499c-4.05,0-9.899,0.75-14.399,5.85
			c-3.149,3.45-4.949,8.4-5.1,13.35h-6.3c0.15-7.5,3.3-13.799,7.35-18c6-6.149,13.05-7.2,18.449-7.2
			c16.499,0,26.099,11.4,26.099,25.049c0,8.549-3.749,19.349-15.749,24.149c10.8,3.45,17.1,13.049,17.1,24.449
			c0,16.799-13.05,29.399-29.399,29.399c-8.999,0-18.898-4.5-23.999-13.049c-1.949-3.15-3.6-7.5-3.6-12.899H9.886z"/>
		<path fill="#3C4040" d="M133.033,78.297h13.949v6h-13.949v19.049h-6.6V84.296H72.585L133.033,0V78.297z M126.434,78.297V19.499
			L84.285,78.297H126.434z"/>
	</g>
	<path fill="#3C4040" d="M50.796,136.308c-1.369-2.737-3.65-5.779-5.931-7.604c-1.977-1.521-5.627-3.498-11.406-3.498
		c-10.038,0-17.034,6.236-17.034,15.665c0,3.954,1.064,6.235,3.802,8.821c3.042,3.041,6.844,4.715,10.646,6.388l9.733,4.258
		c5.931,2.586,11.406,5.323,15.665,9.581c5.171,5.171,7.3,11.103,7.3,18.402c0,18.707-13.839,31.178-32.09,31.178
		c-6.691,0-15.056-1.369-22.052-8.213C4.411,206.419,1.369,199.423,0,193.34l10.95-3.042c0.761,5.323,3.194,9.886,6.083,12.927
		c4.411,4.411,9.429,5.627,14.6,5.627c13.84,0,20.379-9.885,20.379-20.075c0-4.562-1.369-8.517-5.019-11.862
		c-2.89-2.737-6.844-4.562-12.167-6.996l-9.125-4.258c-3.955-1.825-8.973-3.954-13.536-8.365c-4.411-4.258-6.996-8.973-6.996-16.577
		c0-15.664,12.015-26.158,28.44-26.158c6.235,0,11.254,1.217,16.273,4.562c4.106,2.738,7.604,6.844,9.886,11.254L50.796,136.308z"/>
	<path fill="#3C4040" d="M115.411,128.704v90.794h-11.255v-90.794H79.519v-10.646h60.53v10.646H115.411z"/>
</g>
</svg>
