<?xml version="1.0" encoding="utf-8"?>
<!-- Generator: Adobe Illustrator 21.1.0, SVG Export Plug-In . SVG Version: 6.00 Build 0)  -->
<svg version="1.1" id="Layer_1" xmlns="http://www.w3.org/2000/svg" xmlns:xlink="http://www.w3.org/1999/xlink" x="0px" y="0px"
	 viewBox="0 0 445.6 445.6" style="enable-background:new 0 0 445.6 445.6;" xml:space="preserve">
<style type="text/css">
	.st0{fill:#44BFBF;}
	.st1{fill:#FFFFFF;stroke:#44BFBF;stroke-width:4.7467;stroke-miterlimit:10;}
	.st2{font-family:'Futura-Medium';}
	.st3{font-size:168.3971px;}
	.st4{letter-spacing:-6;}
	.st5{letter-spacing:6;}
</style>
<polygon class="st0" points="222.8,19.6 242.3,0 258.1,22.7 280.7,6.8 292.3,31.8 317.3,20.1 324.4,46.8 351.1,39.6 353.4,67.1 
	380.9,64.7 378.5,92.2 406,94.5 398.8,121.2 425.5,128.3 413.7,153.3 438.8,164.9 422.9,187.5 445.6,203.3 426,222.8 445.6,242.3 
	422.9,258.1 438.8,280.7 413.7,292.3 425.5,317.3 398.8,324.4 406,351.1 378.5,353.4 380.9,380.9 353.4,378.5 351.1,406 
	324.4,398.8 317.3,425.5 292.3,413.7 280.7,438.8 258.1,422.9 242.3,445.6 222.8,426 203.3,445.6 187.5,422.9 164.9,438.8 
	153.3,413.7 128.3,425.5 121.2,398.8 94.5,406 92.2,378.5 64.7,380.9 67.1,353.4 39.6,351.1 46.8,324.4 20.1,317.3 31.8,292.3 
	6.8,280.7 22.7,258.1 0,242.3 19.6,222.8 0,203.3 22.7,187.5 6.8,164.9 31.8,153.3 20.1,128.3 46.8,121.2 39.6,94.5 67.1,92.2 
	64.7,64.7 92.2,67.1 94.5,39.6 121.2,46.8 128.3,20.1 153.3,31.8 164.9,6.8 187.5,22.7 203.3,0 "/>
<g>
	<g>
		<text transform="matrix(0.866 -0.5 0.5 0.866 135.2631 254.9933)" class="st1 st2 st3 st4">34</text>
	</g>
	<text transform="matrix(0.866 -0.5 0.5 0.866 216.8481 396.3033)" class="st1 st2 st3 st5">ST</text>
</g>
</svg>
