<svg xmlns="http://www.w3.org/2000/svg" viewBox="0 0 505.53 132.7"><title>logo-lockups</title><path d="M95.22,93.69c-4.74-.71-10,1.91-14.77,7.21a.54.54,0,0,1-.14-.28,26.34,26.34,0,0,1,3-12,15.22,15.22,0,0,1,10.11-7.77c.28-.07.57-.07.85-.14s.57-.07.92-.14v-16a10,10,0,0,0-6.08.71c-2,.92-3,2.69-3.46,4.88a5.21,5.21,0,0,0-.42-.35A16.63,16.63,0,0,1,83.7,59a8.86,8.86,0,0,1,8-7.14c.85-.07,1.77-.07,2.62-.07a3.55,3.55,0,0,0,.85-.14c0-.28.07-.57.07-.78.07-2.62.14-5.23.14-7.92a34.39,34.39,0,0,0-.42-5.37,8.38,8.38,0,0,0-1.2-3.11c-2.47-4.52-9-4.31-11.38-.42-.42.78-.85,1.55-1.2,2.33a21.46,21.46,0,0,1-.85,2.54,19.09,19.09,0,0,1-.57-2.76C78.54,26,87.65,18.48,96.7,19.9a11.78,11.78,0,0,1,7,4c2.47,2.76,3.46,6.15,4,9.68.14.92.21,1.84.35,2.9.35-.14.64-.28.92-.42,1.41-1,2.9-2,4.31-3a1.58,1.58,0,0,0,.78-1.55c-.07-1.91,0-3.82,0-5.87h1.7v5c.14.07.21.14.35.14,5.73-4.1,11.38-8.27,17.25-12.44,4.38,5.87,10.46,8.69,17.53,10-.42.42-.71.78-1,1.06-1.77,1.7-3.53,3.46-5.3,5.16a2.08,2.08,0,0,0-.64,1.55c.07,14.21.07,28.41.14,42.62a19.42,19.42,0,0,0,1.55,6.64c.14.35.28.78.49,1.27-10.11.64-16.82,6.22-21.84,14.56A34.5,34.5,0,0,0,115.79,97v24.81c-5.58.28-9.54-2.4-12.93-6.36-3.32,4.31-7.21,7.21-12.93,6.79.07-.21.07-.35.14-.42,3-3.46,4.24-7.56,4.95-12A94.21,94.21,0,0,0,95.22,93.69Zm21-13.64c5.73,1.55,10.32,5,15.05,8.48V35.8c-4.66-.14-7.63-2.62-9.61-6.64-1.55,1.2-2.9,2.26-4.31,3.25a2.43,2.43,0,0,0-1.13,2.26V80ZM114,34.6a45.72,45.72,0,0,1-4.24,3.11,3,3,0,0,0-1.41,2.76c.07,20.36,0,40.78,0,61.14,0,2.83,0,5.65.07,8.55a12.67,12.67,0,0,0,1.55,6,6,6,0,0,0,4,2.9Z"/><path d="M39.24,83.16V32.76a9,9,0,0,0-1.41.07c-3.39.35-6.79.78-10.18,1.06A23.66,23.66,0,0,1,18.74,33a14.11,14.11,0,0,1-5.23-3.11c-2.54-2.33-3.32-5.37-3.75-8.55-.07-.85-.07-1.7-.14-2.69,1.7.42,3.25.85,4.74,1.2a35.39,35.39,0,0,0,10.18.78c5.3-.42,10.53-1,15.83-1.48,4.95-.49,9.9-1.13,14.84-.64a16.29,16.29,0,0,1,13.5,9.26A27,27,0,0,1,71.47,38.2c.28,3.68.42,7.42.49,11.17.07,9.54.07,19.08,0,28.55a21.89,21.89,0,0,0,1.84,8.76c.21.42.35.92.64,1.55-11,1.63-21.06,5.23-29.33,12.72-11.66-6.71-23.32-6.79-35-.42.21-1.34,4-6.08,7.28-9a33.62,33.62,0,0,1,10.18-6.29A31.28,31.28,0,0,1,39.24,83.16Zm2.12,0a6.27,6.27,0,0,0,1,.21,21,21,0,0,1,9.9,4.17,37.73,37.73,0,0,1,3.11,2.76c.57.57,1,.71,1.63.28a3.45,3.45,0,0,1,.49-.21C59.17,89.66,59,90,59,88.17,59,72.91,59,57.64,59,42.3a17.27,17.27,0,0,0-.64-4.66,7.3,7.3,0,0,0-6-5.65c-3.6-.85-7.21-.07-10.88.28C41.36,49.3,41.36,66.19,41.36,83.16Z"/><path d="M20.16,67.32a23.28,23.28,0,0,0-5.87,0A3.9,3.9,0,0,0,11,70.72a5.49,5.49,0,0,0-.14,1.13c-.14-.07-.21-.07-.28-.14A20.55,20.55,0,0,1,10.12,61a7.88,7.88,0,0,1,7-6.36c1-.14,2-.21,3-.35.14-1,.21-2,.42-3a16.07,16.07,0,0,1,7.77-11.45,25.55,25.55,0,0,1,6.79-3c0,.21,0,.42-.07.49A16.87,16.87,0,0,0,33.59,45c-.07,8.62-.14,17.18-.28,25.8A9.08,9.08,0,0,1,32,75a14,14,0,0,1-3.89,4.52,29.43,29.43,0,0,1-10.6,4.81v-.28c2.12-1.91,2.76-4.45,2.83-7.14.14-3.11.07-6.15.07-9.26A.76.76,0,0,1,20.16,67.32Z"/><path d="M206.64,49.61H191.91l-1.81,6h-10.8L193,14h12.86l13.67,41.65H208.45Zm-2.5-8.18-4.87-15.55-4.87,15.55Z"/><path d="M232.62,55.61h-9.49V14h9.49Z"/><path d="M256.53,26.7H266V44.87a14.84,14.84,0,0,1-.84,5.28,8.58,8.58,0,0,1-2.59,3.65A12.79,12.79,0,0,1,258.31,56a19.24,19.24,0,0,1-5.59.75,19.68,19.68,0,0,1-5.93-.81,12.27,12.27,0,0,1-4.37-2.37A8.63,8.63,0,0,1,240,50a14.68,14.68,0,0,1-.81-5.12V26.7h9.49V44.18a5.3,5.3,0,0,0,1,3.5,4.32,4.32,0,0,0,5.81.13,4.11,4.11,0,0,0,1-2.93Z"/><path d="M272.7,26.7h9.49v3.5a8.75,8.75,0,0,1,3.18-3.46A8.85,8.85,0,0,1,290,25.57a9.55,9.55,0,0,1,4.9,1.16,7.53,7.53,0,0,1,3,3.46,9.61,9.61,0,0,1,3.56-3.46,10.17,10.17,0,0,1,4.93-1.16,11.4,11.4,0,0,1,3.9.62,7.66,7.66,0,0,1,3,1.94,7.82,7.82,0,0,1,2,3.28,18.16,18.16,0,0,1,.56,5.09V55.61h-9.49V38.18a5.62,5.62,0,0,0-1-3.46,3.52,3.52,0,0,0-5.43,0,5.61,5.61,0,0,0-1,3.46V55.61H289.5V38.5a6.12,6.12,0,0,0-1-3.71,3.24,3.24,0,0,0-2.75-1.34,3.64,3.64,0,0,0-1.59.34,3.2,3.2,0,0,0-1.22,1,4.17,4.17,0,0,0-.56,1.5,11.25,11.25,0,0,0-.19,2.19V55.61H272.7Z"/><path d="M322.78,26.7h9.49v3.25a9.65,9.65,0,0,1,3.09-3.37,8.19,8.19,0,0,1,4.28-1,11.91,11.91,0,0,1,4.12.69,9.05,9.05,0,0,1,3.31,2.12,8.42,8.42,0,0,1,2,3.59,22.72,22.72,0,0,1,.59,5.9V55.61H340.2V37.94a4.79,4.79,0,0,0-1.06-3.31,4,4,0,0,0-5.78.06,4.94,4.94,0,0,0-1.09,3.37V55.61h-9.49Z"/><path d="M361.43,13.21A4.81,4.81,0,0,1,365,14.65a5,5,0,0,1,1.41,3.68A4.83,4.83,0,0,1,365,21.89a5.06,5.06,0,0,1-8.68-3.62,4.91,4.91,0,0,1,1.44-3.62A5,5,0,0,1,361.43,13.21Zm4.68,13.49V55.61h-9.49V26.7Z"/><path d="M205.39,112.53H190.66l-1.81,6H178l13.74-41.65h12.86l13.67,41.65H207.21Zm-2.5-8.18L198,88.8l-4.87,15.55Z"/><path d="M243.29,98.16h-8.8V97.6a2.07,2.07,0,0,0-.78-1.65,3,3,0,0,0-2-.66,2.42,2.42,0,0,0-1.62.53,1.75,1.75,0,0,0-.62,1.41,1.8,1.8,0,0,0,.75,1.47,7.5,7.5,0,0,0,2.56,1.09q6.06,1.75,8.55,4a7.75,7.75,0,0,1,2.5,6.06,8.81,8.81,0,0,1-3.22,7.12,12.87,12.87,0,0,1-8.52,2.69q-5.31,0-8.43-2.59a9.13,9.13,0,0,1-3.25-7.15h9a4.8,4.8,0,0,0,.91,2.28,2.28,2.28,0,0,0,1.78.66,2.17,2.17,0,0,0,1.56-.59,2,2,0,0,0-.34-3.12,17.53,17.53,0,0,0-3.84-1.59,16,16,0,0,1-6.9-3.78A8,8,0,0,1,220.44,98a8.5,8.5,0,0,1,3.22-6.93,13,13,0,0,1,8.46-2.62q5.18,0,8.15,2.56A9.08,9.08,0,0,1,243.29,98.16Z"/><path d="M270.27,98.16h-8.8V97.6a2.07,2.07,0,0,0-.78-1.65,3,3,0,0,0-2-.66,2.42,2.42,0,0,0-1.62.53,1.75,1.75,0,0,0-.62,1.41,1.8,1.8,0,0,0,.75,1.47,7.5,7.5,0,0,0,2.56,1.09q6.06,1.75,8.55,4a7.75,7.75,0,0,1,2.5,6.06,8.81,8.81,0,0,1-3.22,7.12,12.87,12.87,0,0,1-8.52,2.69q-5.31,0-8.43-2.59a9.13,9.13,0,0,1-3.25-7.15h9a4.8,4.8,0,0,0,.91,2.28,2.28,2.28,0,0,0,1.78.66,2.17,2.17,0,0,0,1.56-.59,2,2,0,0,0-.34-3.12,17.53,17.53,0,0,0-3.84-1.59,16,16,0,0,1-6.9-3.78A8,8,0,0,1,247.41,98a8.5,8.5,0,0,1,3.22-6.93,13,13,0,0,1,8.46-2.62q5.18,0,8.15,2.56A9.08,9.08,0,0,1,270.27,98.16Z"/><path d="M290.5,88.49A15.85,15.85,0,0,1,302.11,93a15.37,15.37,0,0,1,4.56,11.43A14.24,14.24,0,0,1,302,115.24a16.34,16.34,0,0,1-11.58,4.4,16.09,16.09,0,0,1-11.61-4.37,16.06,16.06,0,0,1,0-22.42A16.26,16.26,0,0,1,290.5,88.49Zm0,8.43a6.5,6.5,0,0,0-4.93,2,8.15,8.15,0,0,0,0,10.4,6.9,6.9,0,0,0,9.68,0,7,7,0,0,0,1.87-5,7.85,7.85,0,0,0-1.75-5.4A6.18,6.18,0,0,0,290.5,96.92Z"/><path d="M331.83,109.22l5.68,6.12a17.61,17.61,0,0,1-5.28,3.22,16.66,16.66,0,0,1-6,1.09,16.83,16.83,0,0,1-6.27-1.16,16.47,16.47,0,0,1-5.28-3.4,13.32,13.32,0,0,1-3.28-4.78,16.18,16.18,0,0,1-1.09-6.09,15.25,15.25,0,0,1,4.46-11.3,15.41,15.41,0,0,1,11.33-4.43,16,16,0,0,1,6.15,1.25,21.6,21.6,0,0,1,5.9,3.75l-6.31,5.68a7.08,7.08,0,0,0-5.31-2.31,6.31,6.31,0,0,0-4.75,2,7,7,0,0,0-1.94,5,7.24,7.24,0,0,0,2.06,5.25,6.84,6.84,0,0,0,5.12,2.12,5.84,5.84,0,0,0,2.34-.53A11,11,0,0,0,331.83,109.22Z"/><path d="M346.38,76.12A4.81,4.81,0,0,1,350,77.56a5,5,0,0,1,1.41,3.68,4.83,4.83,0,0,1-1.44,3.56,5.12,5.12,0,0,1-7.24-7.24A5,5,0,0,1,346.38,76.12Zm4.68,13.49v28.91h-9.49V89.61Z"/><path d="M380.34,92.73V89.61h9.49v28.91h-9.49v-3.25a12.17,12.17,0,0,1-4.34,3.28,14.23,14.23,0,0,1-15.64-3.18,15.33,15.33,0,0,1-4-10.9A16.09,16.09,0,0,1,360.61,93a14.09,14.09,0,0,1,10.74-4.53,11.13,11.13,0,0,1,4.81,1.06A13.52,13.52,0,0,1,380.34,92.73Zm-6.93,3.62a6.33,6.33,0,0,0-5,2.22,8.37,8.37,0,0,0-1.94,5.71,8.17,8.17,0,0,0,2,5.59,6.24,6.24,0,0,0,4.87,2.28,6.51,6.51,0,0,0,5-2.34,8.18,8.18,0,0,0,2.09-5.65,8.08,8.08,0,0,0-2-5.62A6.53,6.53,0,0,0,373.41,96.35Z"/><path d="M407.19,97.29v11.49a1.68,1.68,0,0,0,.47,1.37,3.7,3.7,0,0,0,1.84.5h1v7.87h-7.3q-3.06-.06-4.31-1.47t-1.19-4.53V97.29h-2.93V89.42h2.93V82.31h9.49v7.12h3.31v7.87Z"/><path d="M421.06,76.12a4.81,4.81,0,0,1,3.59,1.44,5,5,0,0,1,1.41,3.68,4.83,4.83,0,0,1-1.44,3.56,5.12,5.12,0,0,1-7.24-7.24A5,5,0,0,1,421.06,76.12Zm4.68,13.49v28.91h-9.49V89.61Z"/><path d="M447.34,88.49A15.85,15.85,0,0,1,459,93a15.37,15.37,0,0,1,4.56,11.43,14.24,14.24,0,0,1-4.71,10.83,16.34,16.34,0,0,1-11.58,4.4,16.09,16.09,0,0,1-11.61-4.37,16.06,16.06,0,0,1,0-22.42A16.26,16.26,0,0,1,447.34,88.49Zm0,8.43a6.5,6.5,0,0,0-4.93,2,8.15,8.15,0,0,0,0,10.4,6.9,6.9,0,0,0,9.68,0,7,7,0,0,0,1.87-5,7.85,7.85,0,0,0-1.75-5.4A6.18,6.18,0,0,0,447.34,96.92Z"/><path d="M468.88,89.61h9.49v3.25a9.65,9.65,0,0,1,3.09-3.37,8.18,8.18,0,0,1,4.28-1,11.89,11.89,0,0,1,4.12.69,9,9,0,0,1,3.31,2.12,8.43,8.43,0,0,1,2,3.59,22.73,22.73,0,0,1,.59,5.9v17.73H486.3V100.85a4.79,4.79,0,0,0-1.06-3.31,4,4,0,0,0-5.78.06,5,5,0,0,0-1.09,3.37v17.55h-9.49Z"/><line x1="163.12" y1="132.7" x2="163.12" style="fill:none;stroke:#000;stroke-miterlimit:10;stroke-width:2px"/></svg>