<svg xmlns="http://www.w3.org/2000/svg" viewBox="0 0 402.63 132.7"><title>logo-lockups</title><path d="M95.22,93.69c-4.74-.71-10,1.91-14.77,7.21a.54.54,0,0,1-.14-.28,26.34,26.34,0,0,1,3-12,15.22,15.22,0,0,1,10.11-7.77c.28-.07.57-.07.85-.14s.57-.07.92-.14v-16a10,10,0,0,0-6.08.71c-2,.92-3,2.69-3.46,4.88a5.21,5.21,0,0,0-.42-.35A16.63,16.63,0,0,1,83.7,59a8.86,8.86,0,0,1,8-7.14c.85-.07,1.77-.07,2.62-.07a3.55,3.55,0,0,0,.85-.14c0-.28.07-.57.07-.78.07-2.62.14-5.23.14-7.92a34.39,34.39,0,0,0-.42-5.37,8.38,8.38,0,0,0-1.2-3.11c-2.47-4.52-9-4.31-11.38-.42-.42.78-.85,1.55-1.2,2.33a21.46,21.46,0,0,1-.85,2.54,19.09,19.09,0,0,1-.57-2.76C78.54,26,87.65,18.48,96.7,19.9a11.78,11.78,0,0,1,7,4c2.47,2.76,3.46,6.15,4,9.68.14.92.21,1.84.35,2.9.35-.14.64-.28.92-.42,1.41-1,2.9-2,4.31-3a1.58,1.58,0,0,0,.78-1.55c-.07-1.91,0-3.82,0-5.87h1.7v5c.14.07.21.14.35.14,5.73-4.1,11.38-8.27,17.25-12.44,4.38,5.87,10.46,8.69,17.53,10-.42.42-.71.78-1,1.06-1.77,1.7-3.53,3.46-5.3,5.16a2.08,2.08,0,0,0-.64,1.55c.07,14.21.07,28.41.14,42.62a19.42,19.42,0,0,0,1.55,6.64c.14.35.28.78.49,1.27-10.11.64-16.82,6.22-21.84,14.56A34.5,34.5,0,0,0,115.79,97v24.81c-5.58.28-9.54-2.4-12.93-6.36-3.32,4.31-7.21,7.21-12.93,6.79.07-.21.07-.35.14-.42,3-3.46,4.24-7.56,4.95-12A94.21,94.21,0,0,0,95.22,93.69Zm21-13.64c5.73,1.55,10.32,5,15.05,8.48V35.8c-4.66-.14-7.63-2.62-9.61-6.64-1.55,1.2-2.9,2.26-4.31,3.25a2.43,2.43,0,0,0-1.13,2.26V80ZM114,34.6a45.72,45.72,0,0,1-4.24,3.11,3,3,0,0,0-1.41,2.76c.07,20.36,0,40.78,0,61.14,0,2.83,0,5.65.07,8.55a12.67,12.67,0,0,0,1.55,6,6,6,0,0,0,4,2.9Z"/><path d="M39.24,83.16V32.76a9,9,0,0,0-1.41.07c-3.39.35-6.79.78-10.18,1.06A23.66,23.66,0,0,1,18.74,33a14.11,14.11,0,0,1-5.23-3.11c-2.54-2.33-3.32-5.37-3.75-8.55-.07-.85-.07-1.7-.14-2.69,1.7.42,3.25.85,4.74,1.2a35.39,35.39,0,0,0,10.18.78c5.3-.42,10.53-1,15.83-1.48,4.95-.49,9.9-1.13,14.84-.64a16.29,16.29,0,0,1,13.5,9.26A27,27,0,0,1,71.47,38.2c.28,3.68.42,7.42.49,11.17.07,9.54.07,19.08,0,28.55a21.89,21.89,0,0,0,1.84,8.76c.21.42.35.92.64,1.55-11,1.63-21.06,5.23-29.33,12.72-11.66-6.71-23.32-6.79-35-.42.21-1.34,4-6.08,7.28-9a33.62,33.62,0,0,1,10.18-6.29A31.28,31.28,0,0,1,39.24,83.16Zm2.12,0a6.27,6.27,0,0,0,1,.21,21,21,0,0,1,9.9,4.17,37.73,37.73,0,0,1,3.11,2.76c.57.57,1,.71,1.63.28a3.45,3.45,0,0,1,.49-.21C59.17,89.66,59,90,59,88.17,59,72.91,59,57.64,59,42.3a17.27,17.27,0,0,0-.64-4.66,7.3,7.3,0,0,0-6-5.65c-3.6-.85-7.21-.07-10.88.28C41.36,49.3,41.36,66.19,41.36,83.16Z"/><path d="M20.16,67.32a23.28,23.28,0,0,0-5.87,0A3.9,3.9,0,0,0,11,70.72a5.49,5.49,0,0,0-.14,1.13c-.14-.07-.21-.07-.28-.14A20.55,20.55,0,0,1,10.12,61a7.88,7.88,0,0,1,7-6.36c1-.14,2-.21,3-.35.14-1,.21-2,.42-3a16.07,16.07,0,0,1,7.77-11.45,25.55,25.55,0,0,1,6.79-3c0,.21,0,.42-.07.49A16.87,16.87,0,0,0,33.59,45c-.07,8.62-.14,17.18-.28,25.8A9.08,9.08,0,0,1,32,75a14,14,0,0,1-3.89,4.52,29.43,29.43,0,0,1-10.6,4.81v-.28c2.12-1.91,2.76-4.45,2.83-7.14.14-3.11.07-6.15.07-9.26A.76.76,0,0,1,20.16,67.32Z"/><path d="M193.34,42.06V55.61H183.23V14h14.3q7.37,0,11.43,3.59T213,27.63q0,6.56-4,10.49t-10.83,3.93Zm0-8.3h2.81a7.25,7.25,0,0,0,4.87-1.5A5.29,5.29,0,0,0,202.77,28a5.56,5.56,0,0,0-1.62-4.15,5.89,5.89,0,0,0-4.31-1.59h-3.5Z"/><path d="M217.88,26.7h9.49v3.93a11.7,11.7,0,0,1,1.12-2.34,4.94,4.94,0,0,1,1.37-1.47,6.44,6.44,0,0,1,1.94-.94,7.93,7.93,0,0,1,2.25-.31H235v9.74l-1.12-.09-.62,0a6.94,6.94,0,0,0-2.87.56,4.7,4.7,0,0,0-2.75,3.5,12.86,12.86,0,0,0-.25,2.75V55.61h-9.49Z"/><path d="M253.78,25.57a15.85,15.85,0,0,1,11.61,4.5A15.37,15.37,0,0,1,270,41.49a14.24,14.24,0,0,1-4.71,10.83,16.34,16.34,0,0,1-11.58,4.4A16.09,16.09,0,0,1,242,52.36a14.8,14.8,0,0,1-4.56-11.18A14.88,14.88,0,0,1,242,29.94,16.26,16.26,0,0,1,253.78,25.57Zm0,8.43a6.5,6.5,0,0,0-4.93,2A7.25,7.25,0,0,0,247,41.18a7.27,7.27,0,0,0,1.87,5.18,6.9,6.9,0,0,0,9.68,0,7,7,0,0,0,1.87-5,7.85,7.85,0,0,0-1.75-5.4A6.18,6.18,0,0,0,253.78,34Z"/><path d="M297.61,29.32V14h9.49V55.61h-9.49V52.36a12.73,12.73,0,0,1-1.65,1.9,7.39,7.39,0,0,1-1.72,1.22,12.42,12.42,0,0,1-2.81.94,15.6,15.6,0,0,1-3.18.31,14.1,14.1,0,0,1-10.65-4.18q-4-4.18-4-11.05a18,18,0,0,1,1.19-6.71,14,14,0,0,1,3.56-5.15,16.27,16.27,0,0,1,4.84-3.06,14.24,14.24,0,0,1,5.28-1,13,13,0,0,1,4.93.94A13.23,13.23,0,0,1,297.61,29.32Zm-6.87,4.12a6.44,6.44,0,0,0-5.06,2.28,8.44,8.44,0,0,0-2,5.78,7.87,7.87,0,0,0,2,5.53,6.54,6.54,0,0,0,5,2.22,6.25,6.25,0,0,0,4.9-2.25,8,8,0,0,0,2-5.49,8.55,8.55,0,0,0-2-5.74A6.18,6.18,0,0,0,290.75,33.44Z"/><path d="M331.08,26.7h9.49V44.87a14.83,14.83,0,0,1-.84,5.28,8.57,8.57,0,0,1-2.59,3.65A12.78,12.78,0,0,1,332.86,56a19.22,19.22,0,0,1-5.59.75,19.68,19.68,0,0,1-5.93-.81A12.27,12.27,0,0,1,317,53.54,8.63,8.63,0,0,1,314.6,50a14.69,14.69,0,0,1-.81-5.12V26.7h9.49V44.18a5.3,5.3,0,0,0,1,3.5,4.32,4.32,0,0,0,5.81.12,4.11,4.11,0,0,0,1-2.93Z"/><path d="M367,46.3l5.68,6.12a17.6,17.6,0,0,1-5.28,3.22,17.39,17.39,0,0,1-12.3-.06,16.48,16.48,0,0,1-5.28-3.4,13.32,13.32,0,0,1-3.28-4.78,16.18,16.18,0,0,1-1.09-6.09A15.25,15.25,0,0,1,350,30a15.41,15.41,0,0,1,11.33-4.43,16,16,0,0,1,6.15,1.25,21.61,21.61,0,0,1,5.9,3.75L367,36.25a7.08,7.08,0,0,0-5.31-2.31A6.31,6.31,0,0,0,357,36a7,7,0,0,0-1.94,5,7.24,7.24,0,0,0,2.06,5.25,6.84,6.84,0,0,0,5.12,2.12,5.84,5.84,0,0,0,2.34-.53A11,11,0,0,0,367,46.3Z"/><path d="M387.84,34.38V45.86a1.68,1.68,0,0,0,.47,1.37,3.7,3.7,0,0,0,1.84.5h1v7.87h-7.3q-3.06-.06-4.31-1.47t-1.19-4.53V34.38h-2.93V26.51h2.93V19.39h9.49v7.12h3.31v7.87Z"/><path d="M192.09,110.34h13.55v8.18H182V76.87h10.12Z"/><path d="M232.68,92.73V89.61h9.49v28.91h-9.49v-3.25a12.17,12.17,0,0,1-4.34,3.28,14.23,14.23,0,0,1-15.64-3.18,15.33,15.33,0,0,1-4-10.9A16.09,16.09,0,0,1,212.95,93a14.09,14.09,0,0,1,10.74-4.53,11.13,11.13,0,0,1,4.81,1.06A13.51,13.51,0,0,1,232.68,92.73Zm-6.93,3.62a6.32,6.32,0,0,0-5,2.22,8.37,8.37,0,0,0-1.94,5.71,8.17,8.17,0,0,0,2,5.59,6.24,6.24,0,0,0,4.87,2.28,6.51,6.51,0,0,0,5-2.34,8.19,8.19,0,0,0,2.09-5.65,8.08,8.08,0,0,0-2-5.62A6.53,6.53,0,0,0,225.75,96.35Z"/><path d="M258.78,115.4v3.12h-9.49V76.87h9.49V92.48a12.75,12.75,0,0,1,4.12-3,11.86,11.86,0,0,1,4.87-1,15.46,15.46,0,0,1,6,1.12,14.21,14.21,0,0,1,4.9,3.43q4.06,4.18,4.06,11.18t-4,11.18a12.91,12.91,0,0,1-4.65,3.18,16,16,0,0,1-6,1.06,13,13,0,0,1-5.34-1A10.68,10.68,0,0,1,258.78,115.4Zm6.93-19a6.38,6.38,0,0,0-5,2.4,8.33,8.33,0,0,0-2.09,5.65,8,8,0,0,0,2,5.53,6.28,6.28,0,0,0,4.9,2.22,6.49,6.49,0,0,0,5.09-2.22,8.2,8.2,0,0,0,2-5.65,8.35,8.35,0,0,0-2-5.65A6.21,6.21,0,0,0,265.71,96.35Z"/><line x1="163.12" y1="132.7" x2="163.12" style="fill:none;stroke:#000;stroke-miterlimit:10;stroke-width:2px"/></svg>